<?xml version="1.0" encoding="UTF-8"?>
<svg xmlns="http://www.w3.org/2000/svg"
     xmlns:xlink="http://www.w3.org/1999/xlink"
     xmlns:gadfly="http://www.gadflyjl.org/ns"
     version="1.2"
     width="101.6mm" height="76.2mm" viewBox="0 0 101.6 76.2"
     stroke="none"
     fill="#000000"
     stroke-width="0.3"
     font-size="3.88"
>
<defs>
  <marker id="arrow" markerWidth="15" markerHeight="7" refX="5" refY="3.5" orient="auto" markerUnits="strokeWidth">
    <path d="M0,0 L15,3.5 L0,7 z" stroke="context-stroke" fill="context-stroke"/>
  </marker>
</defs>
<g class="plotroot xscalable yscalable" id="img-7d29b2b3-1">
  <g font-size="3.88" font-family="'PT Sans','Helvetica Neue','Helvetica',sans-serif" fill="#564A55" stroke="#000000" stroke-opacity="0.000" id="img-7d29b2b3-2">
    <g transform="translate(56.44,64.59)">
      <g class="primitive">
        <text text-anchor="middle" dy="0.6em">y</text>
      </g>
    </g>
  </g>
  <g class="guide xlabels" font-size="2.82" font-family="'PT Sans Caption','Helvetica Neue','Helvetica',sans-serif" fill="#6C606B" id="img-7d29b2b3-3">
    <g transform="translate(18.28,57.91)">
      <g class="primitive">
        <text text-anchor="middle" dy="0.6em">0</text>
      </g>
    </g>
    <g transform="translate(56.44,57.91)">
      <g class="primitive">
        <text text-anchor="middle" dy="0.6em">50,000</text>
      </g>
    </g>
    <g transform="translate(94.6,57.91)">
      <g class="primitive">
        <text text-anchor="middle" dy="0.6em">100,000</text>
      </g>
    </g>
  </g>
  <g clip-path="url(#img-7d29b2b3-4)">
    <g id="img-7d29b2b3-5">
      <g pointer-events="visible" stroke-width="0.3" fill="#000000" fill-opacity="0.000" stroke="#000000" stroke-opacity="0.000" class="guide background" id="img-7d29b2b3-6">
        <g transform="translate(56.44,30.96)" id="img-7d29b2b3-7">
          <path d="M-40.16,-25.96 L40.16,-25.96 40.16,25.96 -40.16,25.96  z" class="primitive"/>
        </g>
      </g>
      <g class="guide ygridlines xfixed" stroke-dasharray="0.5,0.5" stroke-width="0.2" stroke="#D0D0E0" id="img-7d29b2b3-8">
        <g transform="translate(56.44,54.91)" id="img-7d29b2b3-9">
          <path fill="none" d="M-40.16,0 L40.16,0 " class="primitive"/>
        </g>
        <g transform="translate(56.44,38.94)" id="img-7d29b2b3-10">
          <path fill="none" d="M-40.16,0 L40.16,0 " class="primitive"/>
        </g>
        <g transform="translate(56.44,22.97)" id="img-7d29b2b3-11">
          <path fill="none" d="M-40.16,0 L40.16,0 " class="primitive"/>
        </g>
        <g transform="translate(56.44,7)" id="img-7d29b2b3-12">
          <path fill="none" d="M-40.16,0 L40.16,0 " class="primitive"/>
        </g>
      </g>
      <g class="guide xgridlines yfixed" stroke-dasharray="0.5,0.5" stroke-width="0.2" stroke="#D0D0E0" id="img-7d29b2b3-13">
        <g transform="translate(18.28,30.96)" id="img-7d29b2b3-14">
          <path fill="none" d="M0,-25.96 L0,25.96 " class="primitive"/>
        </g>
        <g transform="translate(56.44,30.96)" id="img-7d29b2b3-15">
          <path fill="none" d="M0,-25.96 L0,25.96 " class="primitive"/>
        </g>
        <g transform="translate(94.6,30.96)" id="img-7d29b2b3-16">
          <path fill="none" d="M0,-25.96 L0,25.96 " class="primitive"/>
        </g>
      </g>
      <g class="plotpanel" id="img-7d29b2b3-17">
        <metadata>
          <boundingbox value="16.284999999999997mm 5.0mm 80.315mm 51.914999999999985mm"/>
          <unitbox value="-2620.716766035511 3.1252217468433683 105241.43353207102 -3.2504434936867375"/>
        </metadata>
        <g stroke-width="0.3" fill="#000000" fill-opacity="0.000" class="geometry" id="img-7d29b2b3-18">
          <g class="color_LCHab{Float32}(70.0f0,60.0f0,240.0f0)" stroke-dasharray="none" stroke="#00BFFF" id="img-7d29b2b3-19">
            <g transform="translate(56.44,39.01)" id="img-7d29b2b3-20">
              <path fill="none" d="M-38.16,15.91 L-37.85,14.88 -37.54,13.86 -37.24,12.83 -36.93,11.81 -36.63,10.79 -36.32,9.77 -36.01,8.76 -35.71,7.76 -35.4,6.75 -35.09,5.76 -34.79,4.77 -34.48,3.79 -34.17,2.82 -33.87,1.85 -33.56,0.9 -33.25,-0.04 -32.95,-0.98 -32.64,-1.9 -32.33,-2.81 -32.03,-3.71 -31.72,-4.59 -31.41,-5.47 -31.11,-6.32 -30.8,-7.17 -30.5,-7.99 -30.19,-8.81 -29.88,-9.6 -29.58,-10.38 -29.27,-11.14 -28.96,-11.89 -28.66,-12.61 -28.35,-13.32 -28.04,-14.01 -27.74,-14.68 -27.43,-15.33 -27.12,-15.96 -26.82,-16.57 -26.51,-17.16 -26.2,-17.73 -25.9,-18.28 -25.59,-18.81 -25.29,-19.31 -24.98,-19.8 -24.67,-20.26 -24.37,-20.7 -24.06,-21.11 -23.75,-21.51 -23.45,-21.88 -23.14,-22.23 -22.83,-22.56 -22.53,-22.87 -22.22,-23.15 -21.91,-23.41 -21.61,-23.65 -21.3,-23.86 -20.99,-24.06 -20.69,-24.23 -20.38,-24.37 -20.07,-24.5 -19.77,-24.6 -19.46,-24.69 -19.16,-24.74 -18.85,-24.78 -18.54,-24.8 -18.24,-24.8 -17.93,-24.77 -17.62,-24.72 -17.32,-24.66 -17.01,-24.57 -16.7,-24.46 -16.4,-24.34 -16.09,-24.19 -15.78,-24.03 -15.48,-23.85 -15.17,-23.65 -14.86,-23.43 -14.56,-23.19 -14.25,-22.94 -13.95,-22.67 -13.64,-22.39 -13.33,-22.09 -13.03,-21.77 -12.72,-21.44 -12.41,-21.1 -12.11,-20.74 -11.8,-20.37 -11.49,-19.98 -11.19,-19.59 -10.88,-19.18 -10.57,-18.76 -10.27,-18.33 -9.96,-17.89 -9.65,-17.44 -9.35,-16.98 -9.04,-16.51 -8.73,-16.03 -8.43,-15.55 -8.12,-15.06 -7.82,-14.56 -7.51,-14.05 -7.2,-13.54 -6.9,-13.03 -6.59,-12.51 -6.28,-11.99 -5.98,-11.46 -5.67,-10.93 -5.36,-10.4 -5.06,-9.86 -4.75,-9.33 -4.44,-8.79 -4.14,-8.25 -3.83,-7.71 -3.52,-7.18 -3.22,-6.64 -2.91,-6.1 -2.61,-5.57 -2.3,-5.04 -1.99,-4.51 -1.69,-3.98 -1.38,-3.46 -1.07,-2.94 -0.77,-2.42 -0.46,-1.91 -0.15,-1.4 0.15,-0.9 0.46,-0.4 0.77,0.09 1.07,0.58 1.38,1.06 1.69,1.53 1.99,1.99 2.3,2.45 2.61,2.91 2.91,3.35 3.22,3.79 3.52,4.22 3.83,4.64 4.14,5.05 4.44,5.46 4.75,5.86 5.06,6.24 5.36,6.62 5.67,7 5.98,7.36 6.28,7.71 6.59,8.06 6.9,8.39 7.2,8.72 7.51,9.04 7.82,9.35 8.12,9.65 8.43,9.94 8.73,10.22 9.04,10.5 9.35,10.76 9.65,11.02 9.96,11.27 10.27,11.51 10.57,11.74 10.88,11.96 11.19,12.17 11.49,12.38 11.8,12.58 12.11,12.77 12.41,12.95 12.72,13.12 13.03,13.29 13.33,13.45 13.64,13.6 13.95,13.75 14.25,13.89 14.56,14.02 14.86,14.15 15.17,14.27 15.48,14.38 15.78,14.49 16.09,14.59 16.4,14.69 16.7,14.78 17.01,14.86 17.32,14.94 17.62,15.02 17.93,15.09 18.24,15.16 18.54,15.22 18.85,15.28 19.16,15.33 19.46,15.38 19.77,15.43 20.07,15.47 20.38,15.52 20.69,15.55 20.99,15.59 21.3,15.62 21.61,15.65 21.91,15.68 22.22,15.7 22.53,15.72 22.83,15.74 23.14,15.76 23.45,15.78 23.75,15.79 24.06,15.81 24.37,15.82 24.67,15.83 24.98,15.84 25.29,15.85 25.59,15.86 25.9,15.87 26.2,15.87 26.51,15.88 26.82,15.88 27.12,15.89 27.43,15.89 27.74,15.89 28.04,15.89 28.35,15.9 28.66,15.9 28.96,15.9 29.27,15.9 29.58,15.9 29.88,15.9 30.19,15.9 30.5,15.91 30.8,15.91 31.11,15.91 31.41,15.91 31.72,15.91 32.03,15.91 32.33,15.91 32.64,15.91 32.95,15.91 33.25,15.91 33.56,15.91 33.87,15.91 34.17,15.91 34.48,15.91 34.79,15.91 35.09,15.91 35.4,15.91 35.71,15.91 36.01,15.91 36.32,15.91 36.63,15.91 36.93,15.91 37.24,15.91 37.54,15.91 37.85,15.91 38.16,15.91 " class="primitive"/>
            </g>
          </g>
        </g>
      </g>
    </g>
  </g>
  <g class="guide ylabels" font-size="2.82" font-family="'PT Sans Caption','Helvetica Neue','Helvetica',sans-serif" fill="#6C606B" id="img-7d29b2b3-21">
    <g transform="translate(15.28,54.91)" id="img-7d29b2b3-22">
      <g class="primitive">
        <text text-anchor="end" dy="0.35em">0</text>
      </g>
    </g>
    <g transform="translate(15.28,38.94)" id="img-7d29b2b3-23">
      <g class="primitive">
        <text text-anchor="end" dy="0.35em">1</text>
      </g>
    </g>
    <g transform="translate(15.28,22.97)" id="img-7d29b2b3-24">
      <g class="primitive">
        <text text-anchor="end" dy="0.35em">2</text>
      </g>
    </g>
    <g transform="translate(15.28,7)" id="img-7d29b2b3-25">
      <g class="primitive">
        <text text-anchor="end" dy="0.35em">3</text>
      </g>
    </g>
  </g>
  <g font-size="3.88" font-family="'PT Sans','Helvetica Neue','Helvetica',sans-serif" fill="#564A55" stroke="#000000" stroke-opacity="0.000" id="img-7d29b2b3-26">
    <g transform="translate(8.81,28.96)" id="img-7d29b2b3-27">
      <g class="primitive">
        <text text-anchor="middle" dy="0.35em" transform="rotate(-90,0, 2)">π_Y(y)</text>
      </g>
    </g>
  </g>
</g>
<defs>
  <clipPath id="img-7d29b2b3-4">
    <path d="M16.28,5 L96.6,5 96.6,56.91 16.28,56.91 " />
  </clipPath>
</defs>
</svg>
