<?xml version="1.0" encoding="UTF-8"?>
<svg xmlns="http://www.w3.org/2000/svg"
     xmlns:xlink="http://www.w3.org/1999/xlink"
     xmlns:gadfly="http://www.gadflyjl.org/ns"
     version="1.2"
     width="152.4mm" height="50.8mm" viewBox="0 0 152.4 50.8"
     stroke="none"
     fill="#000000"
     stroke-width="0.3"
     font-size="3.88"
>
<defs>
  <marker id="arrow" markerWidth="15" markerHeight="7" refX="5" refY="3.5" orient="auto" markerUnits="strokeWidth">
    <path d="M0,0 L15,3.5 L0,7 z" stroke="context-stroke" fill="context-stroke"/>
  </marker>
</defs>
<g class="plotroot xscalable yscalable" id="img-09899906-1">
  <g clip-path="url(#img-09899906-2)">
    <g id="img-09899906-3">
      <g pointer-events="visible" stroke-width="0.3" fill="#000000" fill-opacity="0.000" stroke="#000000" stroke-opacity="0.000" class="guide background" id="img-09899906-4">
        <g transform="translate(76.2,25.4)" id="img-09899906-5">
          <path d="M-71.2,-20.4 L71.2,-20.4 71.2,20.4 -71.2,20.4  z" class="primitive"/>
        </g>
      </g>
      <g class="plotpanel" id="img-09899906-6">
        <metadata>
          <boundingbox value="5.0mm 5.0mm 142.39999999999998mm 40.8mm"/>
          <unitbox value="-0.014450867052023125 1.5814962311267071 1.0289017341040463 -1.6630166554115888"/>
        </metadata>
        <g stroke-width="2" fill="#000000" fill-opacity="0.000" class="geometry" id="img-09899906-7">
          <g class="color_LCHab{Float32}(70.0f0,60.0f0,240.0f0)" stroke-dasharray="none" stroke="#00BFFF" id="img-09899906-8">
            <g transform="translate(76.2,19.36)" id="img-09899906-9">
              <path fill="none" d="M-69.2,24.44 L-68.64,23.85 -68.09,23.26 -67.53,22.68 -66.98,22.11 -66.42,21.54 -65.87,20.97 -65.31,20.41 -64.75,19.86 -64.2,19.31 -63.64,18.76 -63.09,18.22 -62.53,17.68 -61.97,17.15 -61.42,16.62 -60.86,16.1 -60.31,15.58 -59.75,15.07 -59.2,14.56 -58.64,14.06 -58.08,13.56 -57.53,13.07 -56.97,12.58 -56.42,12.09 -55.86,11.61 -55.3,11.14 -54.75,10.67 -54.19,10.2 -53.64,9.74 -53.08,9.29 -52.53,8.84 -51.97,8.39 -51.41,7.95 -50.86,7.51 -50.3,7.08 -49.75,6.65 -49.19,6.23 -48.63,5.81 -48.08,5.4 -47.52,4.99 -46.97,4.59 -46.41,4.19 -45.86,3.79 -45.3,3.4 -44.74,3.02 -44.19,2.64 -43.63,2.26 -43.08,1.89 -42.52,1.53 -41.96,1.17 -41.41,0.81 -40.85,0.46 -40.3,0.11 -39.74,-0.23 -39.19,-0.57 -38.63,-0.9 -38.07,-1.23 -37.52,-1.55 -36.96,-1.87 -36.41,-2.18 -35.85,-2.49 -35.29,-2.79 -34.74,-3.09 -34.18,-3.39 -33.63,-3.68 -33.07,-3.96 -32.52,-4.24 -31.96,-4.52 -31.4,-4.79 -30.85,-5.05 -30.29,-5.31 -29.74,-5.57 -29.18,-5.82 -28.62,-6.07 -28.07,-6.31 -27.51,-6.55 -26.96,-6.78 -26.4,-7.01 -25.85,-7.23 -25.29,-7.45 -24.73,-7.66 -24.18,-7.87 -23.62,-8.08 -23.07,-8.28 -22.51,-8.47 -21.96,-8.66 -21.4,-8.85 -20.84,-9.03 -20.29,-9.2 -19.73,-9.37 -19.18,-9.54 -18.62,-9.7 -18.06,-9.86 -17.51,-10.01 -16.95,-10.16 -16.4,-10.3 -15.84,-10.44 -15.29,-10.57 -14.73,-10.7 -14.17,-10.82 -13.62,-10.94 -13.06,-11.05 -12.51,-11.16 -11.95,-11.27 -11.39,-11.37 -10.84,-11.46 -10.28,-11.55 -9.73,-11.64 -9.17,-11.72 -8.62,-11.79 -8.06,-11.87 -7.5,-11.93 -6.95,-11.99 -6.39,-12.05 -5.84,-12.1 -5.28,-12.15 -4.72,-12.19 -4.17,-12.23 -3.61,-12.27 -3.06,-12.29 -2.5,-12.32 -1.95,-12.34 -1.39,-12.35 -0.83,-12.36 -0.28,-12.36 0.28,-12.36 0.83,-12.36 1.39,-12.35 1.95,-12.34 2.5,-12.32 3.06,-12.29 3.61,-12.27 4.17,-12.23 4.72,-12.19 5.28,-12.15 5.84,-12.1 6.39,-12.05 6.95,-11.99 7.5,-11.93 8.06,-11.87 8.62,-11.79 9.17,-11.72 9.73,-11.64 10.28,-11.55 10.84,-11.46 11.39,-11.37 11.95,-11.27 12.51,-11.16 13.06,-11.05 13.62,-10.94 14.17,-10.82 14.73,-10.7 15.29,-10.57 15.84,-10.44 16.4,-10.3 16.95,-10.16 17.51,-10.01 18.06,-9.86 18.62,-9.7 19.18,-9.54 19.73,-9.37 20.29,-9.2 20.84,-9.03 21.4,-8.85 21.96,-8.66 22.51,-8.47 23.07,-8.28 23.62,-8.08 24.18,-7.87 24.73,-7.66 25.29,-7.45 25.85,-7.23 26.4,-7.01 26.96,-6.78 27.51,-6.55 28.07,-6.31 28.62,-6.07 29.18,-5.82 29.74,-5.57 30.29,-5.31 30.85,-5.05 31.4,-4.79 31.96,-4.52 32.52,-4.24 33.07,-3.96 33.63,-3.68 34.18,-3.39 34.74,-3.09 35.29,-2.79 35.85,-2.49 36.41,-2.18 36.96,-1.87 37.52,-1.55 38.07,-1.23 38.63,-0.9 39.19,-0.57 39.74,-0.23 40.3,0.11 40.85,0.46 41.41,0.81 41.96,1.17 42.52,1.53 43.08,1.89 43.63,2.26 44.19,2.64 44.74,3.02 45.3,3.4 45.86,3.79 46.41,4.19 46.97,4.59 47.52,4.99 48.08,5.4 48.63,5.81 49.19,6.23 49.75,6.65 50.3,7.08 50.86,7.51 51.41,7.95 51.97,8.39 52.53,8.84 53.08,9.29 53.64,9.74 54.19,10.2 54.75,10.67 55.3,11.14 55.86,11.61 56.42,12.09 56.97,12.58 57.53,13.07 58.08,13.56 58.64,14.06 59.2,14.56 59.75,15.07 60.31,15.58 60.86,16.1 61.42,16.62 61.97,17.15 62.53,17.68 63.09,18.22 63.64,18.76 64.2,19.31 64.75,19.86 65.31,20.41 65.87,20.97 66.42,21.54 66.98,22.11 67.53,22.68 68.09,23.26 68.64,23.85 69.2,24.44 " class="primitive"/>
            </g>
          </g>
        </g>
      </g>
    </g>
  </g>
</g>
<defs>
  <clipPath id="img-09899906-2">
    <path d="M5,5 L147.4,5 147.4,45.8 5,45.8 " />
  </clipPath>
</defs>
</svg>
