<?xml version="1.0" encoding="UTF-8"?>
<svg xmlns="http://www.w3.org/2000/svg"
     xmlns:xlink="http://www.w3.org/1999/xlink"
     xmlns:gadfly="http://www.gadflyjl.org/ns"
     version="1.2"
     width="101.6mm" height="76.2mm" viewBox="0 0 101.6 76.2"
     stroke="none"
     fill="#000000"
     stroke-width="0.3"
     font-size="3.88"
>
<defs>
  <marker id="arrow" markerWidth="15" markerHeight="7" refX="5" refY="3.5" orient="auto" markerUnits="strokeWidth">
    <path d="M0,0 L15,3.5 L0,7 z" stroke="context-stroke" fill="context-stroke"/>
  </marker>
</defs>
<g class="plotroot xscalable yscalable" id="img-744970e6-1">
  <g font-size="3.88" font-family="'PT Sans','Helvetica Neue','Helvetica',sans-serif" fill="#564A55" stroke="#000000" stroke-opacity="0.000" id="img-744970e6-2">
    <g transform="translate(55.54,64.59)">
      <g class="primitive">
        <text text-anchor="middle" dy="0.6em">samples</text>
      </g>
    </g>
  </g>
  <g class="guide xlabels" font-size="2.82" font-family="'PT Sans Caption','Helvetica Neue','Helvetica',sans-serif" fill="#6C606B" id="img-744970e6-3">
    <g transform="translate(16.48,57.91)">
      <g class="primitive">
        <text text-anchor="middle" dy="0.6em">0.0</text>
      </g>
    </g>
    <g transform="translate(55.54,57.91)">
      <g class="primitive">
        <text text-anchor="middle" dy="0.6em">0.5</text>
      </g>
    </g>
    <g transform="translate(94.6,57.91)">
      <g class="primitive">
        <text text-anchor="middle" dy="0.6em">1.0</text>
      </g>
    </g>
  </g>
  <g clip-path="url(#img-744970e6-4)">
    <g id="img-744970e6-5">
      <g pointer-events="visible" stroke-width="0.3" fill="#000000" fill-opacity="0.000" stroke="#000000" stroke-opacity="0.000" class="guide background" id="img-744970e6-6">
        <g transform="translate(55.54,30.96)" id="img-744970e6-7">
          <path d="M-41.06,-25.96 L41.06,-25.96 41.06,25.96 -41.06,25.96  z" class="primitive"/>
        </g>
      </g>
      <g class="guide ygridlines xfixed" stroke-dasharray="0.5,0.5" stroke-width="0.2" stroke="#D0D0E0" id="img-744970e6-8">
        <g transform="translate(55.54,54.91)" id="img-744970e6-9">
          <path fill="none" d="M-41.06,0 L41.06,0 " class="primitive"/>
        </g>
        <g transform="translate(55.54,45.33)" id="img-744970e6-10">
          <path fill="none" d="M-41.06,0 L41.06,0 " class="primitive"/>
        </g>
        <g transform="translate(55.54,35.75)" id="img-744970e6-11">
          <path fill="none" d="M-41.06,0 L41.06,0 " class="primitive"/>
        </g>
        <g transform="translate(55.54,26.17)" id="img-744970e6-12">
          <path fill="none" d="M-41.06,0 L41.06,0 " class="primitive"/>
        </g>
        <g transform="translate(55.54,16.58)" id="img-744970e6-13">
          <path fill="none" d="M-41.06,0 L41.06,0 " class="primitive"/>
        </g>
        <g transform="translate(55.54,7)" id="img-744970e6-14">
          <path fill="none" d="M-41.06,0 L41.06,0 " class="primitive"/>
        </g>
      </g>
      <g class="guide xgridlines yfixed" stroke-dasharray="0.5,0.5" stroke-width="0.2" stroke="#D0D0E0" id="img-744970e6-15">
        <g transform="translate(16.48,30.96)" id="img-744970e6-16">
          <path fill="none" d="M0,-25.96 L0,25.96 " class="primitive"/>
        </g>
        <g transform="translate(55.54,30.96)" id="img-744970e6-17">
          <path fill="none" d="M0,-25.96 L0,25.96 " class="primitive"/>
        </g>
        <g transform="translate(94.6,30.96)" id="img-744970e6-18">
          <path fill="none" d="M0,-25.96 L0,25.96 " class="primitive"/>
        </g>
      </g>
      <g class="plotpanel" id="img-744970e6-19">
        <metadata>
          <boundingbox value="14.479166666666671mm 5.0mm 82.12083333333334mm 51.91499999999999mm"/>
          <unitbox value="-0.025601365406154996 5.208702911405614 1.05120273081231 -5.4174058228112285"/>
        </metadata>
        <g shape-rendering="crispEdges" stroke-width="0.3" id="img-744970e6-20">
          <g class="geometry" fill-opacity="1" stroke="#000000" stroke-opacity="0.000" fill="#00BFFF" id="img-744970e6-21">
            <g transform="translate(17.17,49.38)" id="img-744970e6-22">
              <path d="M-0.19,-5.54 L0.19,-5.54 0.19,5.54 -0.19,5.54  z" class="primitive"/>
            </g>
            <g transform="translate(17.51,50.49)" id="img-744970e6-23">
              <path d="M-0.19,-4.43 L0.19,-4.43 0.19,4.43 -0.19,4.43  z" class="primitive"/>
            </g>
            <g transform="translate(17.85,49.38)" id="img-744970e6-24">
              <path d="M-0.19,-5.54 L0.19,-5.54 0.19,5.54 -0.19,5.54  z" class="primitive"/>
            </g>
            <g transform="translate(18.19,48.27)" id="img-744970e6-25">
              <path d="M-0.19,-6.64 L0.19,-6.64 0.19,6.64 -0.19,6.64  z" class="primitive"/>
            </g>
            <g transform="translate(18.52,48.27)" id="img-744970e6-26">
              <path d="M-0.19,-6.64 L0.19,-6.64 0.19,6.64 -0.19,6.64  z" class="primitive"/>
            </g>
            <g transform="translate(18.86,50.49)" id="img-744970e6-27">
              <path d="M-0.19,-4.43 L0.19,-4.43 0.19,4.43 -0.19,4.43  z" class="primitive"/>
            </g>
            <g transform="translate(19.2,49.38)" id="img-744970e6-28">
              <path d="M-0.19,-5.54 L0.19,-5.54 0.19,5.54 -0.19,5.54  z" class="primitive"/>
            </g>
            <g transform="translate(19.54,47.17)" id="img-744970e6-29">
              <path d="M-0.19,-7.75 L0.19,-7.75 0.19,7.75 -0.19,7.75  z" class="primitive"/>
            </g>
            <g transform="translate(19.88,41.63)" id="img-744970e6-30">
              <path d="M-0.19,-13.29 L0.19,-13.29 0.19,13.29 -0.19,13.29  z" class="primitive"/>
            </g>
            <g transform="translate(20.21,41.63)" id="img-744970e6-31">
              <path d="M-0.19,-13.29 L0.19,-13.29 0.19,13.29 -0.19,13.29  z" class="primitive"/>
            </g>
            <g transform="translate(20.55,44.95)" id="img-744970e6-32">
              <path d="M-0.19,-9.96 L0.19,-9.96 0.19,9.96 -0.19,9.96  z" class="primitive"/>
            </g>
            <g transform="translate(20.89,40.52)" id="img-744970e6-33">
              <path d="M-0.19,-14.39 L0.19,-14.39 0.19,14.39 -0.19,14.39  z" class="primitive"/>
            </g>
            <g transform="translate(21.23,40.52)" id="img-744970e6-34">
              <path d="M-0.19,-14.39 L0.19,-14.39 0.19,14.39 -0.19,14.39  z" class="primitive"/>
            </g>
            <g transform="translate(21.57,48.27)" id="img-744970e6-35">
              <path d="M-0.19,-6.64 L0.19,-6.64 0.19,6.64 -0.19,6.64  z" class="primitive"/>
            </g>
            <g transform="translate(21.91,33.88)" id="img-744970e6-36">
              <path d="M-0.19,-21.04 L0.19,-21.04 0.19,21.04 -0.19,21.04  z" class="primitive"/>
            </g>
            <g transform="translate(22.24,33.88)" id="img-744970e6-37">
              <path d="M-0.19,-21.04 L0.19,-21.04 0.19,21.04 -0.19,21.04  z" class="primitive"/>
            </g>
            <g transform="translate(22.58,40.52)" id="img-744970e6-38">
              <path d="M-0.19,-14.39 L0.19,-14.39 0.19,14.39 -0.19,14.39  z" class="primitive"/>
            </g>
            <g transform="translate(22.92,33.88)" id="img-744970e6-39">
              <path d="M-0.19,-21.04 L0.19,-21.04 0.19,21.04 -0.19,21.04  z" class="primitive"/>
            </g>
            <g transform="translate(23.26,39.42)" id="img-744970e6-40">
              <path d="M-0.19,-15.5 L0.19,-15.5 0.19,15.5 -0.19,15.5  z" class="primitive"/>
            </g>
            <g transform="translate(23.6,36.09)" id="img-744970e6-41">
              <path d="M-0.19,-18.82 L0.19,-18.82 0.19,18.82 -0.19,18.82  z" class="primitive"/>
            </g>
            <g transform="translate(23.93,38.31)" id="img-744970e6-42">
              <path d="M-0.19,-16.61 L0.19,-16.61 0.19,16.61 -0.19,16.61  z" class="primitive"/>
            </g>
            <g transform="translate(24.27,46.06)" id="img-744970e6-43">
              <path d="M-0.19,-8.86 L0.19,-8.86 0.19,8.86 -0.19,8.86  z" class="primitive"/>
            </g>
            <g transform="translate(24.61,39.42)" id="img-744970e6-44">
              <path d="M-0.19,-15.5 L0.19,-15.5 0.19,15.5 -0.19,15.5  z" class="primitive"/>
            </g>
            <g transform="translate(24.95,36.09)" id="img-744970e6-45">
              <path d="M-0.19,-18.82 L0.19,-18.82 0.19,18.82 -0.19,18.82  z" class="primitive"/>
            </g>
            <g transform="translate(25.29,40.52)" id="img-744970e6-46">
              <path d="M-0.19,-14.39 L0.19,-14.39 0.19,14.39 -0.19,14.39  z" class="primitive"/>
            </g>
            <g transform="translate(25.62,42.74)" id="img-744970e6-47">
              <path d="M-0.19,-12.18 L0.19,-12.18 0.19,12.18 -0.19,12.18  z" class="primitive"/>
            </g>
            <g transform="translate(25.96,42.74)" id="img-744970e6-48">
              <path d="M-0.19,-12.18 L0.19,-12.18 0.19,12.18 -0.19,12.18  z" class="primitive"/>
            </g>
            <g transform="translate(26.3,34.99)" id="img-744970e6-49">
              <path d="M-0.19,-19.93 L0.19,-19.93 0.19,19.93 -0.19,19.93  z" class="primitive"/>
            </g>
            <g transform="translate(26.64,40.52)" id="img-744970e6-50">
              <path d="M-0.19,-14.39 L0.19,-14.39 0.19,14.39 -0.19,14.39  z" class="primitive"/>
            </g>
            <g transform="translate(26.98,38.31)" id="img-744970e6-51">
              <path d="M-0.19,-16.61 L0.19,-16.61 0.19,16.61 -0.19,16.61  z" class="primitive"/>
            </g>
            <g transform="translate(27.32,36.09)" id="img-744970e6-52">
              <path d="M-0.19,-18.82 L0.19,-18.82 0.19,18.82 -0.19,18.82  z" class="primitive"/>
            </g>
            <g transform="translate(27.65,33.88)" id="img-744970e6-53">
              <path d="M-0.19,-21.04 L0.19,-21.04 0.19,21.04 -0.19,21.04  z" class="primitive"/>
            </g>
            <g transform="translate(27.99,42.74)" id="img-744970e6-54">
              <path d="M-0.19,-12.18 L0.19,-12.18 0.19,12.18 -0.19,12.18  z" class="primitive"/>
            </g>
            <g transform="translate(28.33,43.84)" id="img-744970e6-55">
              <path d="M-0.19,-11.07 L0.19,-11.07 0.19,11.07 -0.19,11.07  z" class="primitive"/>
            </g>
            <g transform="translate(28.67,41.63)" id="img-744970e6-56">
              <path d="M-0.19,-13.29 L0.19,-13.29 0.19,13.29 -0.19,13.29  z" class="primitive"/>
            </g>
            <g transform="translate(29.01,40.52)" id="img-744970e6-57">
              <path d="M-0.19,-14.39 L0.19,-14.39 0.19,14.39 -0.19,14.39  z" class="primitive"/>
            </g>
            <g transform="translate(29.34,39.42)" id="img-744970e6-58">
              <path d="M-0.19,-15.5 L0.19,-15.5 0.19,15.5 -0.19,15.5  z" class="primitive"/>
            </g>
            <g transform="translate(29.68,40.52)" id="img-744970e6-59">
              <path d="M-0.19,-14.39 L0.19,-14.39 0.19,14.39 -0.19,14.39  z" class="primitive"/>
            </g>
            <g transform="translate(30.02,38.31)" id="img-744970e6-60">
              <path d="M-0.19,-16.61 L0.19,-16.61 0.19,16.61 -0.19,16.61  z" class="primitive"/>
            </g>
            <g transform="translate(30.36,34.99)" id="img-744970e6-61">
              <path d="M-0.19,-19.93 L0.19,-19.93 0.19,19.93 -0.19,19.93  z" class="primitive"/>
            </g>
            <g transform="translate(30.7,38.31)" id="img-744970e6-62">
              <path d="M-0.19,-16.61 L0.19,-16.61 0.19,16.61 -0.19,16.61  z" class="primitive"/>
            </g>
            <g transform="translate(31.03,44.95)" id="img-744970e6-63">
              <path d="M-0.19,-9.96 L0.19,-9.96 0.19,9.96 -0.19,9.96  z" class="primitive"/>
            </g>
            <g transform="translate(31.37,34.99)" id="img-744970e6-64">
              <path d="M-0.19,-19.93 L0.19,-19.93 0.19,19.93 -0.19,19.93  z" class="primitive"/>
            </g>
            <g transform="translate(31.71,41.63)" id="img-744970e6-65">
              <path d="M-0.19,-13.29 L0.19,-13.29 0.19,13.29 -0.19,13.29  z" class="primitive"/>
            </g>
            <g transform="translate(32.05,41.63)" id="img-744970e6-66">
              <path d="M-0.19,-13.29 L0.19,-13.29 0.19,13.29 -0.19,13.29  z" class="primitive"/>
            </g>
            <g transform="translate(32.39,43.84)" id="img-744970e6-67">
              <path d="M-0.19,-11.07 L0.19,-11.07 0.19,11.07 -0.19,11.07  z" class="primitive"/>
            </g>
            <g transform="translate(32.72,39.42)" id="img-744970e6-68">
              <path d="M-0.19,-15.5 L0.19,-15.5 0.19,15.5 -0.19,15.5  z" class="primitive"/>
            </g>
            <g transform="translate(33.06,42.74)" id="img-744970e6-69">
              <path d="M-0.19,-12.18 L0.19,-12.18 0.19,12.18 -0.19,12.18  z" class="primitive"/>
            </g>
            <g transform="translate(33.4,41.63)" id="img-744970e6-70">
              <path d="M-0.19,-13.29 L0.19,-13.29 0.19,13.29 -0.19,13.29  z" class="primitive"/>
            </g>
            <g transform="translate(33.74,40.52)" id="img-744970e6-71">
              <path d="M-0.19,-14.39 L0.19,-14.39 0.19,14.39 -0.19,14.39  z" class="primitive"/>
            </g>
            <g transform="translate(34.08,44.95)" id="img-744970e6-72">
              <path d="M-0.19,-9.96 L0.19,-9.96 0.19,9.96 -0.19,9.96  z" class="primitive"/>
            </g>
            <g transform="translate(34.42,38.31)" id="img-744970e6-73">
              <path d="M-0.19,-16.61 L0.19,-16.61 0.19,16.61 -0.19,16.61  z" class="primitive"/>
            </g>
            <g transform="translate(34.75,47.17)" id="img-744970e6-74">
              <path d="M-0.19,-7.75 L0.19,-7.75 0.19,7.75 -0.19,7.75  z" class="primitive"/>
            </g>
            <g transform="translate(35.09,43.84)" id="img-744970e6-75">
              <path d="M-0.19,-11.07 L0.19,-11.07 0.19,11.07 -0.19,11.07  z" class="primitive"/>
            </g>
            <g transform="translate(35.43,46.06)" id="img-744970e6-76">
              <path d="M-0.19,-8.86 L0.19,-8.86 0.19,8.86 -0.19,8.86  z" class="primitive"/>
            </g>
            <g transform="translate(35.77,38.31)" id="img-744970e6-77">
              <path d="M-0.19,-16.61 L0.19,-16.61 0.19,16.61 -0.19,16.61  z" class="primitive"/>
            </g>
            <g transform="translate(36.11,43.84)" id="img-744970e6-78">
              <path d="M-0.19,-11.07 L0.19,-11.07 0.19,11.07 -0.19,11.07  z" class="primitive"/>
            </g>
            <g transform="translate(36.44,44.95)" id="img-744970e6-79">
              <path d="M-0.19,-9.96 L0.19,-9.96 0.19,9.96 -0.19,9.96  z" class="primitive"/>
            </g>
            <g transform="translate(36.78,47.17)" id="img-744970e6-80">
              <path d="M-0.19,-7.75 L0.19,-7.75 0.19,7.75 -0.19,7.75  z" class="primitive"/>
            </g>
            <g transform="translate(37.12,39.42)" id="img-744970e6-81">
              <path d="M-0.19,-15.5 L0.19,-15.5 0.19,15.5 -0.19,15.5  z" class="primitive"/>
            </g>
            <g transform="translate(37.46,40.52)" id="img-744970e6-82">
              <path d="M-0.19,-14.39 L0.19,-14.39 0.19,14.39 -0.19,14.39  z" class="primitive"/>
            </g>
            <g transform="translate(37.8,49.38)" id="img-744970e6-83">
              <path d="M-0.19,-5.54 L0.19,-5.54 0.19,5.54 -0.19,5.54  z" class="primitive"/>
            </g>
            <g transform="translate(38.13,46.06)" id="img-744970e6-84">
              <path d="M-0.19,-8.86 L0.19,-8.86 0.19,8.86 -0.19,8.86  z" class="primitive"/>
            </g>
            <g transform="translate(38.47,42.74)" id="img-744970e6-85">
              <path d="M-0.19,-12.18 L0.19,-12.18 0.19,12.18 -0.19,12.18  z" class="primitive"/>
            </g>
            <g transform="translate(38.81,46.06)" id="img-744970e6-86">
              <path d="M-0.19,-8.86 L0.19,-8.86 0.19,8.86 -0.19,8.86  z" class="primitive"/>
            </g>
            <g transform="translate(39.15,42.74)" id="img-744970e6-87">
              <path d="M-0.19,-12.18 L0.19,-12.18 0.19,12.18 -0.19,12.18  z" class="primitive"/>
            </g>
            <g transform="translate(39.49,47.17)" id="img-744970e6-88">
              <path d="M-0.19,-7.75 L0.19,-7.75 0.19,7.75 -0.19,7.75  z" class="primitive"/>
            </g>
            <g transform="translate(39.82,46.06)" id="img-744970e6-89">
              <path d="M-0.19,-8.86 L0.19,-8.86 0.19,8.86 -0.19,8.86  z" class="primitive"/>
            </g>
            <g transform="translate(40.16,49.38)" id="img-744970e6-90">
              <path d="M-0.19,-5.54 L0.19,-5.54 0.19,5.54 -0.19,5.54  z" class="primitive"/>
            </g>
            <g transform="translate(40.5,42.74)" id="img-744970e6-91">
              <path d="M-0.19,-12.18 L0.19,-12.18 0.19,12.18 -0.19,12.18  z" class="primitive"/>
            </g>
            <g transform="translate(40.84,47.17)" id="img-744970e6-92">
              <path d="M-0.19,-7.75 L0.19,-7.75 0.19,7.75 -0.19,7.75  z" class="primitive"/>
            </g>
            <g transform="translate(41.18,46.06)" id="img-744970e6-93">
              <path d="M-0.19,-8.86 L0.19,-8.86 0.19,8.86 -0.19,8.86  z" class="primitive"/>
            </g>
            <g transform="translate(41.52,42.74)" id="img-744970e6-94">
              <path d="M-0.19,-12.18 L0.19,-12.18 0.19,12.18 -0.19,12.18  z" class="primitive"/>
            </g>
            <g transform="translate(41.85,49.38)" id="img-744970e6-95">
              <path d="M-0.19,-5.54 L0.19,-5.54 0.19,5.54 -0.19,5.54  z" class="primitive"/>
            </g>
            <g transform="translate(42.19,50.49)" id="img-744970e6-96">
              <path d="M-0.19,-4.43 L0.19,-4.43 0.19,4.43 -0.19,4.43  z" class="primitive"/>
            </g>
            <g transform="translate(42.53,50.49)" id="img-744970e6-97">
              <path d="M-0.19,-4.43 L0.19,-4.43 0.19,4.43 -0.19,4.43  z" class="primitive"/>
            </g>
            <g transform="translate(42.87,41.63)" id="img-744970e6-98">
              <path d="M-0.19,-13.29 L0.19,-13.29 0.19,13.29 -0.19,13.29  z" class="primitive"/>
            </g>
            <g transform="translate(43.21,49.38)" id="img-744970e6-99">
              <path d="M-0.19,-5.54 L0.19,-5.54 0.19,5.54 -0.19,5.54  z" class="primitive"/>
            </g>
            <g transform="translate(43.54,44.95)" id="img-744970e6-100">
              <path d="M-0.19,-9.96 L0.19,-9.96 0.19,9.96 -0.19,9.96  z" class="primitive"/>
            </g>
            <g transform="translate(43.88,52.7)" id="img-744970e6-101">
              <path d="M-0.19,-2.21 L0.19,-2.21 0.19,2.21 -0.19,2.21  z" class="primitive"/>
            </g>
            <g transform="translate(44.22,48.27)" id="img-744970e6-102">
              <path d="M-0.19,-6.64 L0.19,-6.64 0.19,6.64 -0.19,6.64  z" class="primitive"/>
            </g>
            <g transform="translate(44.56,47.17)" id="img-744970e6-103">
              <path d="M-0.19,-7.75 L0.19,-7.75 0.19,7.75 -0.19,7.75  z" class="primitive"/>
            </g>
            <g transform="translate(44.9,48.27)" id="img-744970e6-104">
              <path d="M-0.19,-6.64 L0.19,-6.64 0.19,6.64 -0.19,6.64  z" class="primitive"/>
            </g>
            <g transform="translate(45.23,50.49)" id="img-744970e6-105">
              <path d="M-0.19,-4.43 L0.19,-4.43 0.19,4.43 -0.19,4.43  z" class="primitive"/>
            </g>
            <g transform="translate(45.57,50.49)" id="img-744970e6-106">
              <path d="M-0.19,-4.43 L0.19,-4.43 0.19,4.43 -0.19,4.43  z" class="primitive"/>
            </g>
            <g transform="translate(45.91,50.49)" id="img-744970e6-107">
              <path d="M-0.19,-4.43 L0.19,-4.43 0.19,4.43 -0.19,4.43  z" class="primitive"/>
            </g>
            <g transform="translate(46.25,53.81)" id="img-744970e6-108">
              <path d="M-0.19,-1.11 L0.19,-1.11 0.19,1.11 -0.19,1.11  z" class="primitive"/>
            </g>
            <g transform="translate(46.59,48.27)" id="img-744970e6-109">
              <path d="M-0.19,-6.64 L0.19,-6.64 0.19,6.64 -0.19,6.64  z" class="primitive"/>
            </g>
            <g transform="translate(46.93,49.38)" id="img-744970e6-110">
              <path d="M-0.19,-5.54 L0.19,-5.54 0.19,5.54 -0.19,5.54  z" class="primitive"/>
            </g>
            <g transform="translate(47.26,48.27)" id="img-744970e6-111">
              <path d="M-0.19,-6.64 L0.19,-6.64 0.19,6.64 -0.19,6.64  z" class="primitive"/>
            </g>
            <g transform="translate(47.6,54.92)" id="img-744970e6-112">
              <path d="M-0.19,-0 L0.19,-0 0.19,0 -0.19,0  z" class="primitive"/>
            </g>
            <g transform="translate(47.94,51.59)" id="img-744970e6-113">
              <path d="M-0.19,-3.32 L0.19,-3.32 0.19,3.32 -0.19,3.32  z" class="primitive"/>
            </g>
            <g transform="translate(48.28,51.59)" id="img-744970e6-114">
              <path d="M-0.19,-3.32 L0.19,-3.32 0.19,3.32 -0.19,3.32  z" class="primitive"/>
            </g>
            <g transform="translate(48.62,50.49)" id="img-744970e6-115">
              <path d="M-0.19,-4.43 L0.19,-4.43 0.19,4.43 -0.19,4.43  z" class="primitive"/>
            </g>
            <g transform="translate(48.95,50.49)" id="img-744970e6-116">
              <path d="M-0.19,-4.43 L0.19,-4.43 0.19,4.43 -0.19,4.43  z" class="primitive"/>
            </g>
            <g transform="translate(49.29,50.49)" id="img-744970e6-117">
              <path d="M-0.19,-4.43 L0.19,-4.43 0.19,4.43 -0.19,4.43  z" class="primitive"/>
            </g>
            <g transform="translate(49.63,51.59)" id="img-744970e6-118">
              <path d="M-0.19,-3.32 L0.19,-3.32 0.19,3.32 -0.19,3.32  z" class="primitive"/>
            </g>
            <g transform="translate(49.97,53.81)" id="img-744970e6-119">
              <path d="M-0.19,-1.11 L0.19,-1.11 0.19,1.11 -0.19,1.11  z" class="primitive"/>
            </g>
            <g transform="translate(50.31,53.81)" id="img-744970e6-120">
              <path d="M-0.19,-1.11 L0.19,-1.11 0.19,1.11 -0.19,1.11  z" class="primitive"/>
            </g>
            <g transform="translate(50.64,52.7)" id="img-744970e6-121">
              <path d="M-0.19,-2.21 L0.19,-2.21 0.19,2.21 -0.19,2.21  z" class="primitive"/>
            </g>
            <g transform="translate(50.98,52.7)" id="img-744970e6-122">
              <path d="M-0.19,-2.21 L0.19,-2.21 0.19,2.21 -0.19,2.21  z" class="primitive"/>
            </g>
            <g transform="translate(51.32,54.92)" id="img-744970e6-123">
              <path d="M-0.19,-0 L0.19,-0 0.19,0 -0.19,0  z" class="primitive"/>
            </g>
            <g transform="translate(51.66,51.59)" id="img-744970e6-124">
              <path d="M-0.19,-3.32 L0.19,-3.32 0.19,3.32 -0.19,3.32  z" class="primitive"/>
            </g>
            <g transform="translate(52,49.38)" id="img-744970e6-125">
              <path d="M-0.19,-5.54 L0.19,-5.54 0.19,5.54 -0.19,5.54  z" class="primitive"/>
            </g>
            <g transform="translate(52.33,54.92)" id="img-744970e6-126">
              <path d="M-0.19,-0 L0.19,-0 0.19,0 -0.19,0  z" class="primitive"/>
            </g>
            <g transform="translate(52.67,51.59)" id="img-744970e6-127">
              <path d="M-0.19,-3.32 L0.19,-3.32 0.19,3.32 -0.19,3.32  z" class="primitive"/>
            </g>
            <g transform="translate(53.01,54.92)" id="img-744970e6-128">
              <path d="M-0.19,-0 L0.19,-0 0.19,0 -0.19,0  z" class="primitive"/>
            </g>
            <g transform="translate(53.35,53.81)" id="img-744970e6-129">
              <path d="M-0.19,-1.11 L0.19,-1.11 0.19,1.11 -0.19,1.11  z" class="primitive"/>
            </g>
            <g transform="translate(53.69,53.81)" id="img-744970e6-130">
              <path d="M-0.19,-1.11 L0.19,-1.11 0.19,1.11 -0.19,1.11  z" class="primitive"/>
            </g>
            <g transform="translate(54.03,52.7)" id="img-744970e6-131">
              <path d="M-0.19,-2.21 L0.19,-2.21 0.19,2.21 -0.19,2.21  z" class="primitive"/>
            </g>
            <g transform="translate(54.36,52.7)" id="img-744970e6-132">
              <path d="M-0.19,-2.21 L0.19,-2.21 0.19,2.21 -0.19,2.21  z" class="primitive"/>
            </g>
            <g transform="translate(54.7,54.92)" id="img-744970e6-133">
              <path d="M-0.19,-0 L0.19,-0 0.19,0 -0.19,0  z" class="primitive"/>
            </g>
            <g transform="translate(55.04,47.17)" id="img-744970e6-134">
              <path d="M-0.19,-7.75 L0.19,-7.75 0.19,7.75 -0.19,7.75  z" class="primitive"/>
            </g>
            <g transform="translate(55.38,54.92)" id="img-744970e6-135">
              <path d="M-0.19,-0 L0.19,-0 0.19,0 -0.19,0  z" class="primitive"/>
            </g>
            <g transform="translate(55.72,51.59)" id="img-744970e6-136">
              <path d="M-0.19,-3.32 L0.19,-3.32 0.19,3.32 -0.19,3.32  z" class="primitive"/>
            </g>
            <g transform="translate(56.05,53.81)" id="img-744970e6-137">
              <path d="M-0.19,-1.11 L0.19,-1.11 0.19,1.11 -0.19,1.11  z" class="primitive"/>
            </g>
            <g transform="translate(56.39,51.59)" id="img-744970e6-138">
              <path d="M-0.19,-3.32 L0.19,-3.32 0.19,3.32 -0.19,3.32  z" class="primitive"/>
            </g>
            <g transform="translate(56.73,51.59)" id="img-744970e6-139">
              <path d="M-0.19,-3.32 L0.19,-3.32 0.19,3.32 -0.19,3.32  z" class="primitive"/>
            </g>
            <g transform="translate(57.07,53.81)" id="img-744970e6-140">
              <path d="M-0.19,-1.11 L0.19,-1.11 0.19,1.11 -0.19,1.11  z" class="primitive"/>
            </g>
            <g transform="translate(57.41,53.81)" id="img-744970e6-141">
              <path d="M-0.19,-1.11 L0.19,-1.11 0.19,1.11 -0.19,1.11  z" class="primitive"/>
            </g>
            <g transform="translate(57.74,54.92)" id="img-744970e6-142">
              <path d="M-0.19,-0 L0.19,-0 0.19,0 -0.19,0  z" class="primitive"/>
            </g>
            <g transform="translate(58.08,53.81)" id="img-744970e6-143">
              <path d="M-0.19,-1.11 L0.19,-1.11 0.19,1.11 -0.19,1.11  z" class="primitive"/>
            </g>
            <g transform="translate(58.42,54.92)" id="img-744970e6-144">
              <path d="M-0.19,-0 L0.19,-0 0.19,0 -0.19,0  z" class="primitive"/>
            </g>
            <g transform="translate(58.76,51.59)" id="img-744970e6-145">
              <path d="M-0.19,-3.32 L0.19,-3.32 0.19,3.32 -0.19,3.32  z" class="primitive"/>
            </g>
            <g transform="translate(59.1,53.81)" id="img-744970e6-146">
              <path d="M-0.19,-1.11 L0.19,-1.11 0.19,1.11 -0.19,1.11  z" class="primitive"/>
            </g>
            <g transform="translate(59.43,52.7)" id="img-744970e6-147">
              <path d="M-0.19,-2.21 L0.19,-2.21 0.19,2.21 -0.19,2.21  z" class="primitive"/>
            </g>
            <g transform="translate(59.77,54.92)" id="img-744970e6-148">
              <path d="M-0.19,-0 L0.19,-0 0.19,0 -0.19,0  z" class="primitive"/>
            </g>
            <g transform="translate(60.11,53.81)" id="img-744970e6-149">
              <path d="M-0.19,-1.11 L0.19,-1.11 0.19,1.11 -0.19,1.11  z" class="primitive"/>
            </g>
            <g transform="translate(60.45,52.7)" id="img-744970e6-150">
              <path d="M-0.19,-2.21 L0.19,-2.21 0.19,2.21 -0.19,2.21  z" class="primitive"/>
            </g>
            <g transform="translate(60.79,53.81)" id="img-744970e6-151">
              <path d="M-0.19,-1.11 L0.19,-1.11 0.19,1.11 -0.19,1.11  z" class="primitive"/>
            </g>
            <g transform="translate(61.13,52.7)" id="img-744970e6-152">
              <path d="M-0.19,-2.21 L0.19,-2.21 0.19,2.21 -0.19,2.21  z" class="primitive"/>
            </g>
            <g transform="translate(61.46,54.92)" id="img-744970e6-153">
              <path d="M-0.19,-0 L0.19,-0 0.19,0 -0.19,0  z" class="primitive"/>
            </g>
            <g transform="translate(61.8,52.7)" id="img-744970e6-154">
              <path d="M-0.19,-2.21 L0.19,-2.21 0.19,2.21 -0.19,2.21  z" class="primitive"/>
            </g>
            <g transform="translate(62.14,54.92)" id="img-744970e6-155">
              <path d="M-0.19,-0 L0.19,-0 0.19,0 -0.19,0  z" class="primitive"/>
            </g>
            <g transform="translate(62.48,53.81)" id="img-744970e6-156">
              <path d="M-0.19,-1.11 L0.19,-1.11 0.19,1.11 -0.19,1.11  z" class="primitive"/>
            </g>
            <g transform="translate(62.82,54.92)" id="img-744970e6-157">
              <path d="M-0.19,-0 L0.19,-0 0.19,0 -0.19,0  z" class="primitive"/>
            </g>
            <g transform="translate(63.15,54.92)" id="img-744970e6-158">
              <path d="M-0.19,-0 L0.19,-0 0.19,0 -0.19,0  z" class="primitive"/>
            </g>
            <g transform="translate(63.49,54.92)" id="img-744970e6-159">
              <path d="M-0.19,-0 L0.19,-0 0.19,0 -0.19,0  z" class="primitive"/>
            </g>
            <g transform="translate(63.83,54.92)" id="img-744970e6-160">
              <path d="M-0.19,-0 L0.19,-0 0.19,0 -0.19,0  z" class="primitive"/>
            </g>
            <g transform="translate(64.17,54.92)" id="img-744970e6-161">
              <path d="M-0.19,-0 L0.19,-0 0.19,0 -0.19,0  z" class="primitive"/>
            </g>
            <g transform="translate(64.51,54.92)" id="img-744970e6-162">
              <path d="M-0.19,-0 L0.19,-0 0.19,0 -0.19,0  z" class="primitive"/>
            </g>
            <g transform="translate(64.84,53.81)" id="img-744970e6-163">
              <path d="M-0.19,-1.11 L0.19,-1.11 0.19,1.11 -0.19,1.11  z" class="primitive"/>
            </g>
            <g transform="translate(65.18,54.92)" id="img-744970e6-164">
              <path d="M-0.19,-0 L0.19,-0 0.19,0 -0.19,0  z" class="primitive"/>
            </g>
            <g transform="translate(65.52,54.92)" id="img-744970e6-165">
              <path d="M-0.19,-0 L0.19,-0 0.19,0 -0.19,0  z" class="primitive"/>
            </g>
            <g transform="translate(65.86,54.92)" id="img-744970e6-166">
              <path d="M-0.19,-0 L0.19,-0 0.19,0 -0.19,0  z" class="primitive"/>
            </g>
            <g transform="translate(66.2,54.92)" id="img-744970e6-167">
              <path d="M-0.19,-0 L0.19,-0 0.19,0 -0.19,0  z" class="primitive"/>
            </g>
            <g transform="translate(66.53,54.92)" id="img-744970e6-168">
              <path d="M-0.19,-0 L0.19,-0 0.19,0 -0.19,0  z" class="primitive"/>
            </g>
            <g transform="translate(66.87,54.92)" id="img-744970e6-169">
              <path d="M-0.19,-0 L0.19,-0 0.19,0 -0.19,0  z" class="primitive"/>
            </g>
            <g transform="translate(67.21,53.81)" id="img-744970e6-170">
              <path d="M-0.19,-1.11 L0.19,-1.11 0.19,1.11 -0.19,1.11  z" class="primitive"/>
            </g>
            <g transform="translate(67.55,53.81)" id="img-744970e6-171">
              <path d="M-0.19,-1.11 L0.19,-1.11 0.19,1.11 -0.19,1.11  z" class="primitive"/>
            </g>
          </g>
        </g>
        <g stroke-width="2" fill="#000000" fill-opacity="0.000" class="geometry" id="img-744970e6-172">
          <g class="color_RGB{N0f8}(1.0,0.549,0.0)" stroke-dasharray="none" stroke="#FF8C00" id="img-744970e6-173">
            <g transform="translate(55.54,45.37)" id="img-744970e6-174">
              <path fill="none" d="M-39.06,9.54 L-38.75,6.85 -38.43,4.31 -38.12,1.91 -37.81,-0.35 -37.49,-2.48 -37.18,-4.47 -36.86,-6.34 -36.55,-8.09 -36.24,-9.73 -35.92,-11.25 -35.61,-12.67 -35.3,-13.99 -34.98,-15.21 -34.67,-16.33 -34.35,-17.36 -34.04,-18.31 -33.73,-19.17 -33.41,-19.95 -33.1,-20.66 -32.79,-21.3 -32.47,-21.86 -32.16,-22.36 -31.84,-22.8 -31.53,-23.17 -31.22,-23.49 -30.9,-23.75 -30.59,-23.96 -30.28,-24.12 -29.96,-24.23 -29.65,-24.3 -29.33,-24.32 -29.02,-24.31 -28.71,-24.26 -28.39,-24.17 -28.08,-24.05 -27.77,-23.89 -27.45,-23.71 -27.14,-23.49 -26.82,-23.25 -26.51,-22.99 -26.2,-22.7 -25.88,-22.39 -25.57,-22.06 -25.26,-21.71 -24.94,-21.35 -24.63,-20.97 -24.31,-20.57 -24,-20.16 -23.69,-19.74 -23.37,-19.31 -23.06,-18.87 -22.75,-18.41 -22.43,-17.95 -22.12,-17.49 -21.8,-17.02 -21.49,-16.54 -21.18,-16.06 -20.86,-15.57 -20.55,-15.08 -20.24,-14.59 -19.92,-14.1 -19.61,-13.6 -19.29,-13.11 -18.98,-12.62 -18.67,-12.13 -18.35,-11.64 -18.04,-11.15 -17.73,-10.66 -17.41,-10.18 -17.1,-9.7 -16.78,-9.23 -16.47,-8.75 -16.16,-8.29 -15.84,-7.82 -15.53,-7.37 -15.22,-6.91 -14.9,-6.47 -14.59,-6.03 -14.28,-5.59 -13.96,-5.16 -13.65,-4.74 -13.33,-4.33 -13.02,-3.92 -12.71,-3.52 -12.39,-3.12 -12.08,-2.73 -11.77,-2.35 -11.45,-1.98 -11.14,-1.61 -10.82,-1.25 -10.51,-0.9 -10.2,-0.56 -9.88,-0.22 -9.57,0.11 -9.26,0.43 -8.94,0.75 -8.63,1.05 -8.31,1.35 -8,1.65 -7.69,1.93 -7.37,2.21 -7.06,2.48 -6.75,2.74 -6.43,3 -6.12,3.25 -5.8,3.49 -5.49,3.73 -5.18,3.96 -4.86,4.18 -4.55,4.39 -4.24,4.6 -3.92,4.81 -3.61,5 -3.29,5.19 -2.98,5.38 -2.67,5.56 -2.35,5.73 -2.04,5.9 -1.73,6.06 -1.41,6.21 -1.1,6.36 -0.78,6.51 -0.47,6.65 -0.16,6.78 0.16,6.91 0.47,7.04 0.78,7.16 1.1,7.27 1.41,7.39 1.73,7.49 2.04,7.6 2.35,7.69 2.67,7.79 2.98,7.88 3.29,7.97 3.61,8.05 3.92,8.13 4.24,8.21 4.55,8.28 4.86,8.35 5.18,8.42 5.49,8.48 5.8,8.54 6.12,8.6 6.43,8.65 6.75,8.71 7.06,8.76 7.37,8.8 7.69,8.85 8,8.89 8.31,8.93 8.63,8.97 8.94,9.01 9.26,9.04 9.57,9.07 9.88,9.11 10.2,9.13 10.51,9.16 10.82,9.19 11.14,9.21 11.45,9.24 11.77,9.26 12.08,9.28 12.39,9.3 12.71,9.32 13.02,9.33 13.33,9.35 13.65,9.36 13.96,9.38 14.28,9.39 14.59,9.4 14.9,9.41 15.22,9.43 15.53,9.44 15.84,9.44 16.16,9.45 16.47,9.46 16.78,9.47 17.1,9.47 17.41,9.48 17.73,9.49 18.04,9.49 18.35,9.5 18.67,9.5 18.98,9.51 19.29,9.51 19.61,9.51 19.92,9.52 20.24,9.52 20.55,9.52 20.86,9.52 21.18,9.53 21.49,9.53 21.8,9.53 22.12,9.53 22.43,9.53 22.75,9.53 23.06,9.54 23.37,9.54 23.69,9.54 24,9.54 24.31,9.54 24.63,9.54 24.94,9.54 25.26,9.54 25.57,9.54 25.88,9.54 26.2,9.54 26.51,9.54 26.82,9.54 27.14,9.54 27.45,9.54 27.77,9.54 28.08,9.54 28.39,9.54 28.71,9.54 29.02,9.54 29.33,9.54 29.65,9.54 29.96,9.54 30.28,9.54 30.59,9.54 30.9,9.54 31.22,9.54 31.53,9.54 31.84,9.54 32.16,9.54 32.47,9.54 32.79,9.54 33.1,9.54 33.41,9.54 33.73,9.54 34.04,9.54 34.35,9.54 34.67,9.54 34.98,9.54 35.3,9.54 35.61,9.54 35.92,9.54 36.24,9.54 36.55,9.54 36.86,9.54 37.18,9.54 37.49,9.54 37.81,9.54 38.12,9.54 38.43,9.54 38.75,9.54 39.06,9.54 " class="primitive"/>
            </g>
          </g>
        </g>
      </g>
    </g>
  </g>
  <g class="guide ylabels" font-size="2.82" font-family="'PT Sans Caption','Helvetica Neue','Helvetica',sans-serif" fill="#6C606B" id="img-744970e6-175">
    <g transform="translate(13.48,54.91)" id="img-744970e6-176">
      <g class="primitive">
        <text text-anchor="end" dy="0.35em">0</text>
      </g>
    </g>
    <g transform="translate(13.48,45.33)" id="img-744970e6-177">
      <g class="primitive">
        <text text-anchor="end" dy="0.35em">1</text>
      </g>
    </g>
    <g transform="translate(13.48,35.75)" id="img-744970e6-178">
      <g class="primitive">
        <text text-anchor="end" dy="0.35em">2</text>
      </g>
    </g>
    <g transform="translate(13.48,26.17)" id="img-744970e6-179">
      <g class="primitive">
        <text text-anchor="end" dy="0.35em">3</text>
      </g>
    </g>
    <g transform="translate(13.48,16.58)" id="img-744970e6-180">
      <g class="primitive">
        <text text-anchor="end" dy="0.35em">4</text>
      </g>
    </g>
    <g transform="translate(13.48,7)" id="img-744970e6-181">
      <g class="primitive">
        <text text-anchor="end" dy="0.35em">5</text>
      </g>
    </g>
  </g>
  <g font-size="3.88" font-family="'PT Sans','Helvetica Neue','Helvetica',sans-serif" fill="#564A55" stroke="#000000" stroke-opacity="0.000" id="img-744970e6-182">
    <g transform="translate(8.81,30.96)" id="img-744970e6-183">
      <g class="primitive">
        <text text-anchor="end" dy="0.35em">y</text>
      </g>
    </g>
  </g>
</g>
<defs>
  <clipPath id="img-744970e6-4">
    <path d="M14.48,5 L96.6,5 96.6,56.91 14.48,56.91 " />
  </clipPath>
</defs>
</svg>
