<?xml version="1.0" encoding="UTF-8"?>
<svg xmlns="http://www.w3.org/2000/svg"
     xmlns:xlink="http://www.w3.org/1999/xlink"
     xmlns:gadfly="http://www.gadflyjl.org/ns"
     version="1.2"
     width="101.6mm" height="76.2mm" viewBox="0 0 101.6 76.2"
     stroke="none"
     fill="#000000"
     stroke-width="0.3"
     font-size="3.88"
>
<defs>
  <marker id="arrow" markerWidth="15" markerHeight="7" refX="5" refY="3.5" orient="auto" markerUnits="strokeWidth">
    <path d="M0,0 L15,3.5 L0,7 z" stroke="context-stroke" fill="context-stroke"/>
  </marker>
</defs>
<g class="plotroot xscalable yscalable" id="img-7d29b2b3-1">
  <g font-size="3.88" font-family="'PT Sans','Helvetica Neue','Helvetica',sans-serif" fill="#564A55" stroke="#000000" stroke-opacity="0.000" id="img-7d29b2b3-2">
    <g transform="translate(51.12,64.59)">
      <g class="primitive">
        <text text-anchor="middle" dy="0.6em">xmin</text>
      </g>
    </g>
  </g>
  <g class="guide xlabels" font-size="2.82" font-family="'PT Sans Caption','Helvetica Neue','Helvetica',sans-serif" fill="#6C606B" id="img-7d29b2b3-3">
    <g transform="translate(28.72,57.91)">
      <g class="primitive">
        <text text-anchor="middle" dy="0.6em">0.0</text>
      </g>
    </g>
    <g transform="translate(51.12,57.91)">
      <g class="primitive">
        <text text-anchor="middle" dy="0.6em">0.5</text>
      </g>
    </g>
    <g transform="translate(73.51,57.91)">
      <g class="primitive">
        <text text-anchor="middle" dy="0.6em">1.0</text>
      </g>
    </g>
  </g>
  <g class="guide colorkey" id="img-7d29b2b3-4">
    <g font-size="2.82" font-family="'PT Sans','Helvetica Neue','Helvetica',sans-serif" fill="#4C404B" id="img-7d29b2b3-5">
      <g transform="translate(79.82,38.57)">
        <g class="primitive">
          <text dy="0.35em">14</text>
        </g>
      </g>
      <g transform="translate(79.82,34.26)">
        <g class="primitive">
          <text dy="0.35em"></text>
        </g>
      </g>
      <g transform="translate(79.82,17.03)">
        <g class="primitive">
          <text dy="0.35em">18</text>
        </g>
      </g>
      <g transform="translate(79.82,51.49)">
        <g class="primitive">
          <text dy="0.35em"></text>
        </g>
      </g>
      <g transform="translate(79.82,60.1)">
        <g class="primitive">
          <text dy="0.35em">10</text>
        </g>
      </g>
      <g transform="translate(79.82,42.88)">
        <g class="primitive">
          <text dy="0.35em"></text>
        </g>
      </g>
      <g transform="translate(79.82,49.34)">
        <g class="primitive">
          <text dy="0.35em">12</text>
        </g>
      </g>
      <g transform="translate(79.82,27.8)">
        <g class="primitive">
          <text dy="0.35em">16</text>
        </g>
      </g>
      <g transform="translate(79.82,25.65)">
        <g class="primitive">
          <text dy="0.35em"></text>
        </g>
      </g>
    </g>
    <g shape-rendering="crispEdges" fill-opacity="1" stroke="#000000" stroke-opacity="0.000" id="img-7d29b2b3-6">
      <g transform="translate(78.16,59.57)" fill="#004D84">
        <path d="M-0.66,-0.54 L0.66,-0.54 0.66,0.54 -0.66,0.54  z" class="primitive"/>
      </g>
      <g transform="translate(78.16,58.49)" fill="#005B8D">
        <path d="M-0.66,-0.54 L0.66,-0.54 0.66,0.54 -0.66,0.54  z" class="primitive"/>
      </g>
      <g transform="translate(78.16,57.41)" fill="#006995">
        <path d="M-0.66,-0.54 L0.66,-0.54 0.66,0.54 -0.66,0.54  z" class="primitive"/>
      </g>
      <g transform="translate(78.16,56.34)" fill="#00769D">
        <path d="M-0.66,-0.54 L0.66,-0.54 0.66,0.54 -0.66,0.54  z" class="primitive"/>
      </g>
      <g transform="translate(78.16,55.26)" fill="#0083A3">
        <path d="M-0.66,-0.54 L0.66,-0.54 0.66,0.54 -0.66,0.54  z" class="primitive"/>
      </g>
      <g transform="translate(78.16,54.18)" fill="#278FA9">
        <path d="M-0.66,-0.54 L0.66,-0.54 0.66,0.54 -0.66,0.54  z" class="primitive"/>
      </g>
      <g transform="translate(78.16,53.11)" fill="#409BAF">
        <path d="M-0.66,-0.54 L0.66,-0.54 0.66,0.54 -0.66,0.54  z" class="primitive"/>
      </g>
      <g transform="translate(78.16,52.03)" fill="#55A7B5">
        <path d="M-0.66,-0.54 L0.66,-0.54 0.66,0.54 -0.66,0.54  z" class="primitive"/>
      </g>
      <g transform="translate(78.16,50.95)" fill="#69B2BA">
        <path d="M-0.66,-0.54 L0.66,-0.54 0.66,0.54 -0.66,0.54  z" class="primitive"/>
      </g>
      <g transform="translate(78.16,49.88)" fill="#7BBCC0">
        <path d="M-0.66,-0.54 L0.66,-0.54 0.66,0.54 -0.66,0.54  z" class="primitive"/>
      </g>
      <g transform="translate(78.16,48.8)" fill="#8DC6C5">
        <path d="M-0.66,-0.54 L0.66,-0.54 0.66,0.54 -0.66,0.54  z" class="primitive"/>
      </g>
      <g transform="translate(78.16,47.72)" fill="#9ED0CB">
        <path d="M-0.66,-0.54 L0.66,-0.54 0.66,0.54 -0.66,0.54  z" class="primitive"/>
      </g>
      <g transform="translate(78.16,46.65)" fill="#A5CFC7">
        <path d="M-0.66,-0.54 L0.66,-0.54 0.66,0.54 -0.66,0.54  z" class="primitive"/>
      </g>
      <g transform="translate(78.16,45.57)" fill="#ABCEC4">
        <path d="M-0.66,-0.54 L0.66,-0.54 0.66,0.54 -0.66,0.54  z" class="primitive"/>
      </g>
      <g transform="translate(78.16,44.49)" fill="#B1CCC2">
        <path d="M-0.66,-0.54 L0.66,-0.54 0.66,0.54 -0.66,0.54  z" class="primitive"/>
      </g>
      <g transform="translate(78.16,43.41)" fill="#B5CCC1">
        <path d="M-0.66,-0.54 L0.66,-0.54 0.66,0.54 -0.66,0.54  z" class="primitive"/>
      </g>
      <g transform="translate(78.16,42.34)" fill="#B7CBBF">
        <path d="M-0.66,-0.54 L0.66,-0.54 0.66,0.54 -0.66,0.54  z" class="primitive"/>
      </g>
      <g transform="translate(78.16,41.26)" fill="#B9CBBD">
        <path d="M-0.66,-0.54 L0.66,-0.54 0.66,0.54 -0.66,0.54  z" class="primitive"/>
      </g>
      <g transform="translate(78.16,40.18)" fill="#BBCBBB">
        <path d="M-0.66,-0.54 L0.66,-0.54 0.66,0.54 -0.66,0.54  z" class="primitive"/>
      </g>
      <g transform="translate(78.16,39.11)" fill="#BDCABA">
        <path d="M-0.66,-0.54 L0.66,-0.54 0.66,0.54 -0.66,0.54  z" class="primitive"/>
      </g>
      <g transform="translate(78.16,38.03)" fill="#BFCAB8">
        <path d="M-0.66,-0.54 L0.66,-0.54 0.66,0.54 -0.66,0.54  z" class="primitive"/>
      </g>
      <g transform="translate(78.16,36.95)" fill="#C2C9B7">
        <path d="M-0.66,-0.54 L0.66,-0.54 0.66,0.54 -0.66,0.54  z" class="primitive"/>
      </g>
      <g transform="translate(78.16,35.88)" fill="#C4C9B6">
        <path d="M-0.66,-0.54 L0.66,-0.54 0.66,0.54 -0.66,0.54  z" class="primitive"/>
      </g>
      <g transform="translate(78.16,34.8)" fill="#C6C8B5">
        <path d="M-0.66,-0.54 L0.66,-0.54 0.66,0.54 -0.66,0.54  z" class="primitive"/>
      </g>
      <g transform="translate(78.16,33.72)" fill="#C9C7B4">
        <path d="M-0.66,-0.54 L0.66,-0.54 0.66,0.54 -0.66,0.54  z" class="primitive"/>
      </g>
      <g transform="translate(78.16,32.65)" fill="#CCC7B2">
        <path d="M-0.66,-0.54 L0.66,-0.54 0.66,0.54 -0.66,0.54  z" class="primitive"/>
      </g>
      <g transform="translate(78.16,31.57)" fill="#CFC6AE">
        <path d="M-0.66,-0.54 L0.66,-0.54 0.66,0.54 -0.66,0.54  z" class="primitive"/>
      </g>
      <g transform="translate(78.16,30.49)" fill="#D4C5AA">
        <path d="M-0.66,-0.54 L0.66,-0.54 0.66,0.54 -0.66,0.54  z" class="primitive"/>
      </g>
      <g transform="translate(78.16,29.42)" fill="#D8C3A6">
        <path d="M-0.66,-0.54 L0.66,-0.54 0.66,0.54 -0.66,0.54  z" class="primitive"/>
      </g>
      <g transform="translate(78.16,28.34)" fill="#D3B79A">
        <path d="M-0.66,-0.54 L0.66,-0.54 0.66,0.54 -0.66,0.54  z" class="primitive"/>
      </g>
      <g transform="translate(78.16,27.26)" fill="#CDAB8E">
        <path d="M-0.66,-0.54 L0.66,-0.54 0.66,0.54 -0.66,0.54  z" class="primitive"/>
      </g>
      <g transform="translate(78.16,26.19)" fill="#C89E82">
        <path d="M-0.66,-0.54 L0.66,-0.54 0.66,0.54 -0.66,0.54  z" class="primitive"/>
      </g>
      <g transform="translate(78.16,25.11)" fill="#C19177">
        <path d="M-0.66,-0.54 L0.66,-0.54 0.66,0.54 -0.66,0.54  z" class="primitive"/>
      </g>
      <g transform="translate(78.16,24.03)" fill="#BA836C">
        <path d="M-0.66,-0.54 L0.66,-0.54 0.66,0.54 -0.66,0.54  z" class="primitive"/>
      </g>
      <g transform="translate(78.16,22.96)" fill="#B27563">
        <path d="M-0.66,-0.54 L0.66,-0.54 0.66,0.54 -0.66,0.54  z" class="primitive"/>
      </g>
      <g transform="translate(78.16,21.88)" fill="#AA665A">
        <path d="M-0.66,-0.54 L0.66,-0.54 0.66,0.54 -0.66,0.54  z" class="primitive"/>
      </g>
      <g transform="translate(78.16,20.8)" fill="#A05752">
        <path d="M-0.66,-0.54 L0.66,-0.54 0.66,0.54 -0.66,0.54  z" class="primitive"/>
      </g>
      <g transform="translate(78.16,19.73)" fill="#96484A">
        <path d="M-0.66,-0.54 L0.66,-0.54 0.66,0.54 -0.66,0.54  z" class="primitive"/>
      </g>
      <g transform="translate(78.16,18.65)" fill="#8B3844">
        <path d="M-0.66,-0.54 L0.66,-0.54 0.66,0.54 -0.66,0.54  z" class="primitive"/>
      </g>
      <g transform="translate(78.16,17.57)" fill="#7E273E">
        <path d="M-0.66,-0.54 L0.66,-0.54 0.66,0.54 -0.66,0.54  z" class="primitive"/>
      </g>
      <g stroke="#FFFFFF" stroke-width="0.2" id="img-7d29b2b3-7">
        <g transform="translate(78.16,38.57)">
          <path fill="none" d="M-0.66,0 L0.66,0 " class="primitive"/>
        </g>
        <g transform="translate(78.16,34.26)">
          <path fill="none" d="M-0.66,0 L0.66,0 " class="primitive"/>
        </g>
        <g transform="translate(78.16,17.03)">
          <path fill="none" d="M-0.66,0 L0.66,0 " class="primitive"/>
        </g>
        <g transform="translate(78.16,51.49)">
          <path fill="none" d="M-0.66,0 L0.66,0 " class="primitive"/>
        </g>
        <g transform="translate(78.16,60.1)">
          <path fill="none" d="M-0.66,0 L0.66,0 " class="primitive"/>
        </g>
        <g transform="translate(78.16,42.88)">
          <path fill="none" d="M-0.66,0 L0.66,0 " class="primitive"/>
        </g>
        <g transform="translate(78.16,49.34)">
          <path fill="none" d="M-0.66,0 L0.66,0 " class="primitive"/>
        </g>
        <g transform="translate(78.16,27.8)">
          <path fill="none" d="M-0.66,0 L0.66,0 " class="primitive"/>
        </g>
        <g transform="translate(78.16,25.65)">
          <path fill="none" d="M-0.66,0 L0.66,0 " class="primitive"/>
        </g>
      </g>
    </g>
    <g fill="#362A35" font-size="3.88" font-family="'PT Sans','Helvetica Neue','Helvetica',sans-serif" stroke="#000000" stroke-opacity="0.000" id="img-7d29b2b3-8">
      <g transform="translate(77.51,13.03)">
        <g class="primitive">
          <text dy="-0em">NegLogDens</text>
        </g>
      </g>
    </g>
  </g>
  <g clip-path="url(#img-7d29b2b3-9)">
    <g id="img-7d29b2b3-10">
      <g pointer-events="visible" stroke-width="0.3" fill="#000000" fill-opacity="0.000" stroke="#000000" stroke-opacity="0.000" class="guide background" id="img-7d29b2b3-11">
        <g transform="translate(51.12,30.96)" id="img-7d29b2b3-12">
          <path d="M-24.39,-25.96 L24.39,-25.96 24.39,25.96 -24.39,25.96  z" class="primitive"/>
        </g>
      </g>
      <g class="guide ygridlines xfixed" stroke-dasharray="0.5,0.5" stroke-width="0.2" stroke="#D0D0E0" id="img-7d29b2b3-13">
        <g transform="translate(51.12,54.91)" id="img-7d29b2b3-14">
          <path fill="none" d="M-24.39,0 L24.39,0 " class="primitive"/>
        </g>
        <g transform="translate(51.12,30.96)" id="img-7d29b2b3-15">
          <path fill="none" d="M-24.39,0 L24.39,0 " class="primitive"/>
        </g>
        <g transform="translate(51.12,7)" id="img-7d29b2b3-16">
          <path fill="none" d="M-24.39,0 L24.39,0 " class="primitive"/>
        </g>
      </g>
      <g class="guide xgridlines yfixed" stroke-dasharray="0.5,0.5" stroke-width="0.2" stroke="#D0D0E0" id="img-7d29b2b3-17">
        <g transform="translate(28.72,30.96)" id="img-7d29b2b3-18">
          <path fill="none" d="M0,-25.96 L0,25.96 " class="primitive"/>
        </g>
        <g transform="translate(51.12,30.96)" id="img-7d29b2b3-19">
          <path fill="none" d="M0,-25.96 L0,25.96 " class="primitive"/>
        </g>
        <g transform="translate(73.51,30.96)" id="img-7d29b2b3-20">
          <path fill="none" d="M0,-25.96 L0,25.96 " class="primitive"/>
        </g>
      </g>
      <g class="plotpanel" id="img-7d29b2b3-21">
        <metadata>
          <boundingbox value="26.725mm 5.0mm 48.78249999999999mm 51.91499999999999mm"/>
          <unitbox value="-0.04466030257354994 104174.05822811228 1.0893206051470998 -108348.11645622457"/>
        </metadata>
        <g class="geometry" id="img-7d29b2b3-22">
          <g stroke-width="0.3" id="img-7d29b2b3-23">
            <g class="color_" fill-opacity="1" stroke="#48645C" fill="#AECDC3" id="img-7d29b2b3-24">
              <g class="marker" id="img-7d29b2b3-25">
                <g transform="translate(66.66,51.99)" id="img-7d29b2b3-26">
                  <circle cx="0" cy="0" r="0.9" class="primitive"/>
                </g>
              </g>
            </g>
            <g class="color_" fill-opacity="1" stroke="#556254" fill="#BCCABA" id="img-7d29b2b3-27">
              <g class="marker" id="img-7d29b2b3-28">
                <g transform="translate(47.23,35.53)" id="img-7d29b2b3-29">
                  <circle cx="0" cy="0" r="0.9" class="primitive"/>
                </g>
              </g>
            </g>
            <g class="color_" fill-opacity="1" stroke="#5E604F" fill="#C6C8B5" id="img-7d29b2b3-30">
              <g class="marker" id="img-7d29b2b3-31">
                <g transform="translate(38.36,34.65)" id="img-7d29b2b3-32">
                  <circle cx="0" cy="0" r="0.9" class="primitive"/>
                </g>
              </g>
            </g>
            <g class="color_" fill-opacity="1" stroke="#005156" fill="#72B8BD" id="img-7d29b2b3-33">
              <g class="marker" id="img-7d29b2b3-34">
                <g transform="translate(60.84,50.37)" id="img-7d29b2b3-35">
                  <circle cx="0" cy="0" r="0.9" class="primitive"/>
                </g>
              </g>
            </g>
            <g class="color_" fill-opacity="1" stroke="#004C54" fill="#68B2BA" id="img-7d29b2b3-36">
              <g class="marker" id="img-7d29b2b3-37">
                <g transform="translate(56.06,51.37)" id="img-7d29b2b3-38">
                  <circle cx="0" cy="0" r="0.9" class="primitive"/>
                </g>
              </g>
            </g>
            <g class="color_" fill-opacity="1" stroke="#655E4A" fill="#CEC6AF" id="img-7d29b2b3-39">
              <g class="marker" id="img-7d29b2b3-40">
                <g transform="translate(61.85,32.36)" id="img-7d29b2b3-41">
                  <circle cx="0" cy="0" r="0.9" class="primitive"/>
                </g>
              </g>
            </g>
            <g class="color_" fill-opacity="1" stroke="#095659" fill="#7CBDC0" id="img-7d29b2b3-42">
              <g class="marker" id="img-7d29b2b3-43">
                <g transform="translate(62.8,48.74)" id="img-7d29b2b3-44">
                  <circle cx="0" cy="0" r="0.9" class="primitive"/>
                </g>
              </g>
            </g>
            <g class="color_" fill-opacity="1" stroke="#004D54" fill="#6BB3BB" id="img-7d29b2b3-45">
              <g class="marker" id="img-7d29b2b3-46">
                <g transform="translate(53.38,51.79)" id="img-7d29b2b3-47">
                  <circle cx="0" cy="0" r="0.9" class="primitive"/>
                </g>
              </g>
            </g>
            <g class="color_" fill-opacity="1" stroke="#4A645B" fill="#B0CDC3" id="img-7d29b2b3-48">
              <g class="marker" id="img-7d29b2b3-49">
                <g transform="translate(58.65,39.75)" id="img-7d29b2b3-50">
                  <circle cx="0" cy="0" r="0.9" class="primitive"/>
                </g>
              </g>
            </g>
            <g class="color_" fill-opacity="1" stroke="#5C6050" fill="#C4C9B6" id="img-7d29b2b3-51">
              <g class="marker" id="img-7d29b2b3-52">
                <g transform="translate(71.28,43.74)" id="img-7d29b2b3-53">
                  <circle cx="0" cy="0" r="0.9" class="primitive"/>
                </g>
              </g>
            </g>
            <g class="color_" fill-opacity="1" stroke="#00404E" fill="#52A5B4" id="img-7d29b2b3-54">
              <g class="marker" id="img-7d29b2b3-55">
                <g transform="translate(54.82,49.2)" id="img-7d29b2b3-56">
                  <circle cx="0" cy="0" r="0.9" class="primitive"/>
                </g>
              </g>
            </g>
            <g class="color_" fill-opacity="1" stroke="#4E635A" fill="#B4CCC2" id="img-7d29b2b3-57">
              <g class="marker" id="img-7d29b2b3-58">
                <g transform="translate(67.96,45.08)" id="img-7d29b2b3-59">
                  <circle cx="0" cy="0" r="0.9" class="primitive"/>
                </g>
              </g>
            </g>
            <g class="color_" fill-opacity="1" stroke="#0E5759" fill="#7FBFC1" id="img-7d29b2b3-60">
              <g class="marker" id="img-7d29b2b3-61">
                <g transform="translate(62.86,47.96)" id="img-7d29b2b3-62">
                  <circle cx="0" cy="0" r="0.9" class="primitive"/>
                </g>
              </g>
            </g>
            <g class="color_" fill-opacity="1" stroke="#004952" fill="#62AEB8" id="img-7d29b2b3-63">
              <g class="marker" id="img-7d29b2b3-64">
                <g transform="translate(57.78,47.14)" id="img-7d29b2b3-65">
                  <circle cx="0" cy="0" r="0.9" class="primitive"/>
                </g>
              </g>
            </g>
            <g class="color_" fill-opacity="1" stroke="#1A5A5B" fill="#85C2C3" id="img-7d29b2b3-66">
              <g class="marker" id="img-7d29b2b3-67">
                <g transform="translate(41.06,45.33)" id="img-7d29b2b3-68">
                  <circle cx="0" cy="0" r="0.9" class="primitive"/>
                </g>
              </g>
            </g>
            <g class="color_" fill-opacity="1" stroke="#015458" fill="#79BCBF" id="img-7d29b2b3-69">
              <g class="marker" id="img-7d29b2b3-70">
                <g transform="translate(61.81,50.37)" id="img-7d29b2b3-71">
                  <circle cx="0" cy="0" r="0.9" class="primitive"/>
                </g>
              </g>
            </g>
            <g class="color_" fill-opacity="1" stroke="#004C54" fill="#69B2BA" id="img-7d29b2b3-72">
              <g class="marker" id="img-7d29b2b3-73">
                <g transform="translate(42.02,49.01)" id="img-7d29b2b3-74">
                  <circle cx="0" cy="0" r="0.9" class="primitive"/>
                </g>
              </g>
            </g>
            <g class="color_" fill-opacity="1" stroke="#306360" fill="#97CCC8" id="img-7d29b2b3-75">
              <g class="marker" id="img-7d29b2b3-76">
                <g transform="translate(45.21,42.44)" id="img-7d29b2b3-77">
                  <circle cx="0" cy="0" r="0.9" class="primitive"/>
                </g>
              </g>
            </g>
            <g class="color_" fill-opacity="1" stroke="#004A53" fill="#64AFB9" id="img-7d29b2b3-78">
              <g class="marker" id="img-7d29b2b3-79">
                <g transform="translate(45.25,50.92)" id="img-7d29b2b3-80">
                  <circle cx="0" cy="0" r="0.9" class="primitive"/>
                </g>
              </g>
            </g>
            <g class="color_" fill-opacity="1" stroke="#004852" fill="#62AEB8" id="img-7d29b2b3-81">
              <g class="marker" id="img-7d29b2b3-82">
                <g transform="translate(57.94,50.32)" id="img-7d29b2b3-83">
                  <circle cx="0" cy="0" r="0.9" class="primitive"/>
                </g>
              </g>
            </g>
            <g class="color_" fill-opacity="1" stroke="#4F6359" fill="#B6CCC0" id="img-7d29b2b3-84">
              <g class="marker" id="img-7d29b2b3-85">
                <g transform="translate(39.41,39.79)" id="img-7d29b2b3-86">
                  <circle cx="0" cy="0" r="0.9" class="primitive"/>
                </g>
              </g>
            </g>
            <g class="color_" fill-opacity="1" stroke="#025458" fill="#7ABCBF" id="img-7d29b2b3-87">
              <g class="marker" id="img-7d29b2b3-88">
                <g transform="translate(45.32,44.49)" id="img-7d29b2b3-89">
                  <circle cx="0" cy="0" r="0.9" class="primitive"/>
                </g>
              </g>
            </g>
            <g class="color_" fill-opacity="1" stroke="#215D5D" fill="#8BC5C4" id="img-7d29b2b3-90">
              <g class="marker" id="img-7d29b2b3-91">
                <g transform="translate(38.05,48.2)" id="img-7d29b2b3-92">
                  <circle cx="0" cy="0" r="0.9" class="primitive"/>
                </g>
              </g>
            </g>
            <g class="color_" fill-opacity="1" stroke="#2E6260" fill="#95CBC8" id="img-7d29b2b3-93">
              <g class="marker" id="img-7d29b2b3-94">
                <g transform="translate(59.36,52.58)" id="img-7d29b2b3-95">
                  <circle cx="0" cy="0" r="0.9" class="primitive"/>
                </g>
              </g>
            </g>
            <g class="color_" fill-opacity="1" stroke="#004651" fill="#5EACB7" id="img-7d29b2b3-96">
              <g class="marker" id="img-7d29b2b3-97">
                <g transform="translate(53.77,51.06)" id="img-7d29b2b3-98">
                  <circle cx="0" cy="0" r="0.9" class="primitive"/>
                </g>
              </g>
            </g>
            <g class="color_" fill-opacity="1" stroke="#3E655F" fill="#A4CFC8" id="img-7d29b2b3-99">
              <g class="marker" id="img-7d29b2b3-100">
                <g transform="translate(35.9,46.84)" id="img-7d29b2b3-101">
                  <circle cx="0" cy="0" r="0.9" class="primitive"/>
                </g>
              </g>
            </g>
            <g class="color_" fill-opacity="1" stroke="#00414E" fill="#53A6B4" id="img-7d29b2b3-102">
              <g class="marker" id="img-7d29b2b3-103">
                <g transform="translate(50.05,47.31)" id="img-7d29b2b3-104">
                  <circle cx="0" cy="0" r="0.9" class="primitive"/>
                </g>
              </g>
            </g>
            <g class="color_" fill-opacity="1" stroke="#49645C" fill="#AFCDC3" id="img-7d29b2b3-105">
              <g class="marker" id="img-7d29b2b3-106">
                <g transform="translate(62.7,41.31)" id="img-7d29b2b3-107">
                  <circle cx="0" cy="0" r="0.9" class="primitive"/>
                </g>
              </g>
            </g>
            <g class="color_" fill-opacity="1" stroke="#004450" fill="#58A9B6" id="img-7d29b2b3-108">
              <g class="marker" id="img-7d29b2b3-109">
                <g transform="translate(46.33,47.62)" id="img-7d29b2b3-110">
                  <circle cx="0" cy="0" r="0.9" class="primitive"/>
                </g>
              </g>
            </g>
            <g class="color_" fill-opacity="1" stroke="#3C6660" fill="#A3CFC8" id="img-7d29b2b3-111">
              <g class="marker" id="img-7d29b2b3-112">
                <g transform="translate(49.69,40.82)" id="img-7d29b2b3-113">
                  <circle cx="0" cy="0" r="0.9" class="primitive"/>
                </g>
              </g>
            </g>
            <g class="color_" fill-opacity="1" stroke="#1D5B5C" fill="#87C3C3" id="img-7d29b2b3-114">
              <g class="marker" id="img-7d29b2b3-115">
                <g transform="translate(63.48,50.29)" id="img-7d29b2b3-116">
                  <circle cx="0" cy="0" r="0.9" class="primitive"/>
                </g>
              </g>
            </g>
            <g class="color_" fill-opacity="1" stroke="#546254" fill="#BBCBBB" id="img-7d29b2b3-117">
              <g class="marker" id="img-7d29b2b3-118">
                <g transform="translate(31.59,46.96)" id="img-7d29b2b3-119">
                  <circle cx="0" cy="0" r="0.9" class="primitive"/>
                </g>
              </g>
            </g>
            <g class="color_" fill-opacity="1" stroke="#005156" fill="#73B8BD" id="img-7d29b2b3-120">
              <g class="marker" id="img-7d29b2b3-121">
                <g transform="translate(61.48,48.08)" id="img-7d29b2b3-122">
                  <circle cx="0" cy="0" r="0.9" class="primitive"/>
                </g>
              </g>
            </g>
            <g class="color_" fill-opacity="1" stroke="#004550" fill="#5CABB7" id="img-7d29b2b3-123">
              <g class="marker" id="img-7d29b2b3-124">
                <g transform="translate(55.23,46.8)" id="img-7d29b2b3-125">
                  <circle cx="0" cy="0" r="0.9" class="primitive"/>
                </g>
              </g>
            </g>
            <g class="color_" fill-opacity="1" stroke="#45645D" fill="#ABCEC4" id="img-7d29b2b3-126">
              <g class="marker" id="img-7d29b2b3-127">
                <g transform="translate(57.56,40.17)" id="img-7d29b2b3-128">
                  <circle cx="0" cy="0" r="0.9" class="primitive"/>
                </g>
              </g>
            </g>
            <g class="color_" fill-opacity="1" stroke="#306360" fill="#98CCC9" id="img-7d29b2b3-129">
              <g class="marker" id="img-7d29b2b3-130">
                <g transform="translate(49.28,41.85)" id="img-7d29b2b3-131">
                  <circle cx="0" cy="0" r="0.9" class="primitive"/>
                </g>
              </g>
            </g>
            <g class="color_" fill-opacity="1" stroke="#17595B" fill="#83C1C2" id="img-7d29b2b3-132">
              <g class="marker" id="img-7d29b2b3-133">
                <g transform="translate(62.91,50.47)" id="img-7d29b2b3-134">
                  <circle cx="0" cy="0" r="0.9" class="primitive"/>
                </g>
              </g>
            </g>
            <g class="color_" fill-opacity="1" stroke="#005056" fill="#71B7BC" id="img-7d29b2b3-135">
              <g class="marker" id="img-7d29b2b3-136">
                <g transform="translate(58.37,51.34)" id="img-7d29b2b3-137">
                  <circle cx="0" cy="0" r="0.9" class="primitive"/>
                </g>
              </g>
            </g>
            <g class="color_" fill-opacity="1" stroke="#45645C" fill="#ACCEC4" id="img-7d29b2b3-138">
              <g class="marker" id="img-7d29b2b3-139">
                <g transform="translate(63.07,42.02)" id="img-7d29b2b3-140">
                  <circle cx="0" cy="0" r="0.9" class="primitive"/>
                </g>
              </g>
            </g>
            <g class="color_" fill-opacity="1" stroke="#566153" fill="#BDCABA" id="img-7d29b2b3-141">
              <g class="marker" id="img-7d29b2b3-142">
                <g transform="translate(68.97,41.22)" id="img-7d29b2b3-143">
                  <circle cx="0" cy="0" r="0.9" class="primitive"/>
                </g>
              </g>
            </g>
            <g class="color_" fill-opacity="1" stroke="#004A53" fill="#65B0B9" id="img-7d29b2b3-144">
              <g class="marker" id="img-7d29b2b3-145">
                <g transform="translate(44.04,47.06)" id="img-7d29b2b3-146">
                  <circle cx="0" cy="0" r="0.9" class="primitive"/>
                </g>
              </g>
            </g>
            <g class="color_" fill-opacity="1" stroke="#4C635B" fill="#B2CCC2" id="img-7d29b2b3-147">
              <g class="marker" id="img-7d29b2b3-148">
                <g transform="translate(62.77,40.79)" id="img-7d29b2b3-149">
                  <circle cx="0" cy="0" r="0.9" class="primitive"/>
                </g>
              </g>
            </g>
            <g class="color_" fill-opacity="1" stroke="#2A605F" fill="#92C9C7" id="img-7d29b2b3-150">
              <g class="marker" id="img-7d29b2b3-151">
                <g transform="translate(38.45,46.3)" id="img-7d29b2b3-152">
                  <circle cx="0" cy="0" r="0.9" class="primitive"/>
                </g>
              </g>
            </g>
            <g class="color_" fill-opacity="1" stroke="#3E655F" fill="#A4CFC8" id="img-7d29b2b3-153">
              <g class="marker" id="img-7d29b2b3-154">
                <g transform="translate(36.64,51.51)" id="img-7d29b2b3-155">
                  <circle cx="0" cy="0" r="0.9" class="primitive"/>
                </g>
              </g>
            </g>
            <g class="color_" fill-opacity="1" stroke="#00404D" fill="#50A4B3" id="img-7d29b2b3-156">
              <g class="marker" id="img-7d29b2b3-157">
                <g transform="translate(51.82,49.86)" id="img-7d29b2b3-158">
                  <circle cx="0" cy="0" r="0.9" class="primitive"/>
                </g>
              </g>
            </g>
            <g class="color_" fill-opacity="1" stroke="#00424F" fill="#56A7B5" id="img-7d29b2b3-159">
              <g class="marker" id="img-7d29b2b3-160">
                <g transform="translate(47,50)" id="img-7d29b2b3-161">
                  <circle cx="0" cy="0" r="0.9" class="primitive"/>
                </g>
              </g>
            </g>
            <g class="color_" fill-opacity="1" stroke="#43655D" fill="#A9CEC5" id="img-7d29b2b3-162">
              <g class="marker" id="img-7d29b2b3-163">
                <g transform="translate(64.91,43.71)" id="img-7d29b2b3-164">
                  <circle cx="0" cy="0" r="0.9" class="primitive"/>
                </g>
              </g>
            </g>
            <g class="color_" fill-opacity="1" stroke="#004450" fill="#59A9B6" id="img-7d29b2b3-165">
              <g class="marker" id="img-7d29b2b3-166">
                <g transform="translate(45.41,49.52)" id="img-7d29b2b3-167">
                  <circle cx="0" cy="0" r="0.9" class="primitive"/>
                </g>
              </g>
            </g>
            <g class="color_" fill-opacity="1" stroke="#0F5759" fill="#7FBFC1" id="img-7d29b2b3-168">
              <g class="marker" id="img-7d29b2b3-169">
                <g transform="translate(39.22,49.49)" id="img-7d29b2b3-170">
                  <circle cx="0" cy="0" r="0.9" class="primitive"/>
                </g>
              </g>
            </g>
            <g class="color_" fill-opacity="1" stroke="#005257" fill="#75B9BE" id="img-7d29b2b3-171">
              <g class="marker" id="img-7d29b2b3-172">
                <g transform="translate(61.21,47.22)" id="img-7d29b2b3-173">
                  <circle cx="0" cy="0" r="0.9" class="primitive"/>
                </g>
              </g>
            </g>
            <g class="color_" fill-opacity="1" stroke="#3B6661" fill="#A2CFC9" id="img-7d29b2b3-174">
              <g class="marker" id="img-7d29b2b3-175">
                <g transform="translate(53.25,53.32)" id="img-7d29b2b3-176">
                  <circle cx="0" cy="0" r="0.9" class="primitive"/>
                </g>
              </g>
            </g>
            <g class="color_" fill-opacity="1" stroke="#42655E" fill="#A8CEC6" id="img-7d29b2b3-177">
              <g class="marker" id="img-7d29b2b3-178">
                <g transform="translate(60.94,41.67)" id="img-7d29b2b3-179">
                  <circle cx="0" cy="0" r="0.9" class="primitive"/>
                </g>
              </g>
            </g>
            <g class="color_" fill-opacity="1" stroke="#316461" fill="#99CDC9" id="img-7d29b2b3-180">
              <g class="marker" id="img-7d29b2b3-181">
                <g transform="translate(58.5,52.77)" id="img-7d29b2b3-182">
                  <circle cx="0" cy="0" r="0.9" class="primitive"/>
                </g>
              </g>
            </g>
            <g class="color_" fill-opacity="1" stroke="#004C54" fill="#68B2BA" id="img-7d29b2b3-183">
              <g class="marker" id="img-7d29b2b3-184">
                <g transform="translate(53.03,51.69)" id="img-7d29b2b3-185">
                  <circle cx="0" cy="0" r="0.9" class="primitive"/>
                </g>
              </g>
            </g>
            <g class="color_" fill-opacity="1" stroke="#004852" fill="#61AEB8" id="img-7d29b2b3-186">
              <g class="marker" id="img-7d29b2b3-187">
                <g transform="translate(45.7,46.62)" id="img-7d29b2b3-188">
                  <circle cx="0" cy="0" r="0.9" class="primitive"/>
                </g>
              </g>
            </g>
            <g class="color_" fill-opacity="1" stroke="#346561" fill="#9BCECA" id="img-7d29b2b3-189">
              <g class="marker" id="img-7d29b2b3-190">
                <g transform="translate(42.57,42.91)" id="img-7d29b2b3-191">
                  <circle cx="0" cy="0" r="0.9" class="primitive"/>
                </g>
              </g>
            </g>
            <g class="color_" fill-opacity="1" stroke="#4F635A" fill="#B5CCC1" id="img-7d29b2b3-192">
              <g class="marker" id="img-7d29b2b3-193">
                <g transform="translate(69.09,47.22)" id="img-7d29b2b3-194">
                  <circle cx="0" cy="0" r="0.9" class="primitive"/>
                </g>
              </g>
            </g>
            <g class="color_" fill-opacity="1" stroke="#16595A" fill="#83C1C2" id="img-7d29b2b3-195">
              <g class="marker" id="img-7d29b2b3-196">
                <g transform="translate(50.68,52.61)" id="img-7d29b2b3-197">
                  <circle cx="0" cy="0" r="0.9" class="primitive"/>
                </g>
              </g>
            </g>
            <g class="color_" fill-opacity="1" stroke="#004D54" fill="#6BB4BB" id="img-7d29b2b3-198">
              <g class="marker" id="img-7d29b2b3-199">
                <g transform="translate(60.58,48.56)" id="img-7d29b2b3-200">
                  <circle cx="0" cy="0" r="0.9" class="primitive"/>
                </g>
              </g>
            </g>
            <g class="color_" fill-opacity="1" stroke="#005357" fill="#78BABF" id="img-7d29b2b3-201">
              <g class="marker" id="img-7d29b2b3-202">
                <g transform="translate(42.81,45.61)" id="img-7d29b2b3-203">
                  <circle cx="0" cy="0" r="0.9" class="primitive"/>
                </g>
              </g>
            </g>
            <g class="color_" fill-opacity="1" stroke="#3F655F" fill="#A5CFC7" id="img-7d29b2b3-204">
              <g class="marker" id="img-7d29b2b3-205">
                <g transform="translate(42.66,41.56)" id="img-7d29b2b3-206">
                  <circle cx="0" cy="0" r="0.9" class="primitive"/>
                </g>
              </g>
            </g>
            <g class="color_" fill-opacity="1" stroke="#4F6359" fill="#B6CBC0" id="img-7d29b2b3-207">
              <g class="marker" id="img-7d29b2b3-208">
                <g transform="translate(48.61,37.76)" id="img-7d29b2b3-209">
                  <circle cx="0" cy="0" r="0.9" class="primitive"/>
                </g>
              </g>
            </g>
            <g class="color_" fill-opacity="1" stroke="#005156" fill="#74B8BD" id="img-7d29b2b3-210">
              <g class="marker" id="img-7d29b2b3-211">
                <g transform="translate(52.99,44.24)" id="img-7d29b2b3-212">
                  <circle cx="0" cy="0" r="0.9" class="primitive"/>
                </g>
              </g>
            </g>
            <g class="color_" fill-opacity="1" stroke="#46645C" fill="#ACCDC4" id="img-7d29b2b3-213">
              <g class="marker" id="img-7d29b2b3-214">
                <g transform="translate(67.22,45.81)" id="img-7d29b2b3-215">
                  <circle cx="0" cy="0" r="0.9" class="primitive"/>
                </g>
              </g>
            </g>
            <g class="color_" fill-opacity="1" stroke="#47645C" fill="#ADCDC4" id="img-7d29b2b3-216">
              <g class="marker" id="img-7d29b2b3-217">
                <g transform="translate(55.76,53.67)" id="img-7d29b2b3-218">
                  <circle cx="0" cy="0" r="0.9" class="primitive"/>
                </g>
              </g>
            </g>
            <g class="color_" fill-opacity="1" stroke="#004D54" fill="#6AB3BB" id="img-7d29b2b3-219">
              <g class="marker" id="img-7d29b2b3-220">
                <g transform="translate(42.36,47.59)" id="img-7d29b2b3-221">
                  <circle cx="0" cy="0" r="0.9" class="primitive"/>
                </g>
              </g>
            </g>
            <g class="color_" fill-opacity="1" stroke="#400A00" fill="#AB695B" id="img-7d29b2b3-222">
              <g class="marker" id="img-7d29b2b3-223">
                <g transform="translate(55.79,27.22)" id="img-7d29b2b3-224">
                  <circle cx="0" cy="0" r="0.9" class="primitive"/>
                </g>
              </g>
            </g>
            <g class="color_" fill-opacity="1" stroke="#004B53" fill="#68B1BA" id="img-7d29b2b3-225">
              <g class="marker" id="img-7d29b2b3-226">
                <g transform="translate(59.86,49.63)" id="img-7d29b2b3-227">
                  <circle cx="0" cy="0" r="0.9" class="primitive"/>
                </g>
              </g>
            </g>
            <g class="color_" fill-opacity="1" stroke="#506358" fill="#B6CBC0" id="img-7d29b2b3-228">
              <g class="marker" id="img-7d29b2b3-229">
                <g transform="translate(35.54,53.02)" id="img-7d29b2b3-230">
                  <circle cx="0" cy="0" r="0.9" class="primitive"/>
                </g>
              </g>
            </g>
            <g class="color_" fill-opacity="1" stroke="#004E55" fill="#6DB4BB" id="img-7d29b2b3-231">
              <g class="marker" id="img-7d29b2b3-232">
                <g transform="translate(41.42,49.35)" id="img-7d29b2b3-233">
                  <circle cx="0" cy="0" r="0.9" class="primitive"/>
                </g>
              </g>
            </g>
            <g class="color_" fill-opacity="1" stroke="#003F4D" fill="#4FA3B3" id="img-7d29b2b3-234">
              <g class="marker" id="img-7d29b2b3-235">
                <g transform="translate(48.55,48.77)" id="img-7d29b2b3-236">
                  <circle cx="0" cy="0" r="0.9" class="primitive"/>
                </g>
              </g>
            </g>
            <g class="color_" fill-opacity="1" stroke="#004E55" fill="#6EB5BC" id="img-7d29b2b3-237">
              <g class="marker" id="img-7d29b2b3-238">
                <g transform="translate(42.43,46.95)" id="img-7d29b2b3-239">
                  <circle cx="0" cy="0" r="0.9" class="primitive"/>
                </g>
              </g>
            </g>
            <g class="color_" fill-opacity="1" stroke="#546255" fill="#BBCBBB" id="img-7d29b2b3-240">
              <g class="marker" id="img-7d29b2b3-241">
                <g transform="translate(48.9,35.9)" id="img-7d29b2b3-242">
                  <circle cx="0" cy="0" r="0.9" class="primitive"/>
                </g>
              </g>
            </g>
            <g class="color_" fill-opacity="1" stroke="#43655D" fill="#A9CEC5" id="img-7d29b2b3-243">
              <g class="marker" id="img-7d29b2b3-244">
                <g transform="translate(52.94,39.93)" id="img-7d29b2b3-245">
                  <circle cx="0" cy="0" r="0.9" class="primitive"/>
                </g>
              </g>
            </g>
            <g class="color_" fill-opacity="1" stroke="#376662" fill="#9ED0CB" id="img-7d29b2b3-246">
              <g class="marker" id="img-7d29b2b3-247">
                <g transform="translate(57.7,42.16)" id="img-7d29b2b3-248">
                  <circle cx="0" cy="0" r="0.9" class="primitive"/>
                </g>
              </g>
            </g>
            <g class="color_" fill-opacity="1" stroke="#516257" fill="#B8CBBE" id="img-7d29b2b3-249">
              <g class="marker" id="img-7d29b2b3-250">
                <g transform="translate(41.55,38.13)" id="img-7d29b2b3-251">
                  <circle cx="0" cy="0" r="0.9" class="primitive"/>
                </g>
              </g>
            </g>
            <g class="color_" fill-opacity="1" stroke="#5F5F4F" fill="#C8C8B5" id="img-7d29b2b3-252">
              <g class="marker" id="img-7d29b2b3-253">
                <g transform="translate(68.88,37.36)" id="img-7d29b2b3-254">
                  <circle cx="0" cy="0" r="0.9" class="primitive"/>
                </g>
              </g>
            </g>
            <g class="color_" fill-opacity="1" stroke="#3A6661" fill="#A0D0CA" id="img-7d29b2b3-255">
              <g class="marker" id="img-7d29b2b3-256">
                <g transform="translate(66.18,48.3)" id="img-7d29b2b3-257">
                  <circle cx="0" cy="0" r="0.9" class="primitive"/>
                </g>
              </g>
            </g>
            <g class="color_" fill-opacity="1" stroke="#41655E" fill="#A8CEC6" id="img-7d29b2b3-258">
              <g class="marker" id="img-7d29b2b3-259">
                <g transform="translate(59.35,53.27)" id="img-7d29b2b3-260">
                  <circle cx="0" cy="0" r="0.9" class="primitive"/>
                </g>
              </g>
            </g>
            <g class="color_" fill-opacity="1" stroke="#004F55" fill="#6FB6BC" id="img-7d29b2b3-261">
              <g class="marker" id="img-7d29b2b3-262">
                <g transform="translate(48.11,44.76)" id="img-7d29b2b3-263">
                  <circle cx="0" cy="0" r="0.9" class="primitive"/>
                </g>
              </g>
            </g>
            <g class="color_" fill-opacity="1" stroke="#3F655F" fill="#A5CFC7" id="img-7d29b2b3-264">
              <g class="marker" id="img-7d29b2b3-265">
                <g transform="translate(38.68,43.4)" id="img-7d29b2b3-266">
                  <circle cx="0" cy="0" r="0.9" class="primitive"/>
                </g>
              </g>
            </g>
            <g class="color_" fill-opacity="1" stroke="#00424F" fill="#54A6B4" id="img-7d29b2b3-267">
              <g class="marker" id="img-7d29b2b3-268">
                <g transform="translate(46.81,48.29)" id="img-7d29b2b3-269">
                  <circle cx="0" cy="0" r="0.9" class="primitive"/>
                </g>
              </g>
            </g>
            <g class="color_" fill-opacity="1" stroke="#0E5759" fill="#7FBEC1" id="img-7d29b2b3-270">
              <g class="marker" id="img-7d29b2b3-271">
                <g transform="translate(50.28,43.43)" id="img-7d29b2b3-272">
                  <circle cx="0" cy="0" r="0.9" class="primitive"/>
                </g>
              </g>
            </g>
            <g class="color_" fill-opacity="1" stroke="#005156" fill="#73B8BD" id="img-7d29b2b3-273">
              <g class="marker" id="img-7d29b2b3-274">
                <g transform="translate(42.4,50.97)" id="img-7d29b2b3-275">
                  <circle cx="0" cy="0" r="0.9" class="primitive"/>
                </g>
              </g>
            </g>
            <g class="color_" fill-opacity="1" stroke="#1D5B5C" fill="#88C4C4" id="img-7d29b2b3-276">
              <g class="marker" id="img-7d29b2b3-277">
                <g transform="translate(61.08,51.74)" id="img-7d29b2b3-278">
                  <circle cx="0" cy="0" r="0.9" class="primitive"/>
                </g>
              </g>
            </g>
            <g class="color_" fill-opacity="1" stroke="#004450" fill="#58A9B6" id="img-7d29b2b3-279">
              <g class="marker" id="img-7d29b2b3-280">
                <g transform="translate(46.26,47.68)" id="img-7d29b2b3-281">
                  <circle cx="0" cy="0" r="0.9" class="primitive"/>
                </g>
              </g>
            </g>
            <g class="color_" fill-opacity="1" stroke="#566153" fill="#BECAB9" id="img-7d29b2b3-282">
              <g class="marker" id="img-7d29b2b3-283">
                <g transform="translate(31.28,46.41)" id="img-7d29b2b3-284">
                  <circle cx="0" cy="0" r="0.9" class="primitive"/>
                </g>
              </g>
            </g>
            <g class="color_" fill-opacity="1" stroke="#4D635A" fill="#B3CCC2" id="img-7d29b2b3-285">
              <g class="marker" id="img-7d29b2b3-286">
                <g transform="translate(38.07,41.4)" id="img-7d29b2b3-287">
                  <circle cx="0" cy="0" r="0.9" class="primitive"/>
                </g>
              </g>
            </g>
            <g class="color_" fill-opacity="1" stroke="#4D635A" fill="#B3CCC2" id="img-7d29b2b3-288">
              <g class="marker" id="img-7d29b2b3-289">
                <g transform="translate(65.77,42.47)" id="img-7d29b2b3-290">
                  <circle cx="0" cy="0" r="0.9" class="primitive"/>
                </g>
              </g>
            </g>
            <g class="color_" fill-opacity="1" stroke="#586152" fill="#BFCAB8" id="img-7d29b2b3-291">
              <g class="marker" id="img-7d29b2b3-292">
                <g transform="translate(37.61,36.95)" id="img-7d29b2b3-293">
                  <circle cx="0" cy="0" r="0.9" class="primitive"/>
                </g>
              </g>
            </g>
            <g class="color_" fill-opacity="1" stroke="#566153" fill="#BECAB9" id="img-7d29b2b3-294">
              <g class="marker" id="img-7d29b2b3-295">
                <g transform="translate(66.56,38.63)" id="img-7d29b2b3-296">
                  <circle cx="0" cy="0" r="0.9" class="primitive"/>
                </g>
              </g>
            </g>
            <g class="color_" fill-opacity="1" stroke="#336461" fill="#9ACECA" id="img-7d29b2b3-297">
              <g class="marker" id="img-7d29b2b3-298">
                <g transform="translate(38.24,45.58)" id="img-7d29b2b3-299">
                  <circle cx="0" cy="0" r="0.9" class="primitive"/>
                </g>
              </g>
            </g>
            <g class="color_" fill-opacity="1" stroke="#49645B" fill="#AFCDC3" id="img-7d29b2b3-300">
              <g class="marker" id="img-7d29b2b3-301">
                <g transform="translate(64.95,52.8)" id="img-7d29b2b3-302">
                  <circle cx="0" cy="0" r="0.9" class="primitive"/>
                </g>
              </g>
            </g>
            <g class="color_" fill-opacity="1" stroke="#526257" fill="#B8CBBE" id="img-7d29b2b3-303">
              <g class="marker" id="img-7d29b2b3-304">
                <g transform="translate(69.72,45.98)" id="img-7d29b2b3-305">
                  <circle cx="0" cy="0" r="0.9" class="primitive"/>
                </g>
              </g>
            </g>
            <g class="color_" fill-opacity="1" stroke="#4F635A" fill="#B5CCC1" id="img-7d29b2b3-306">
              <g class="marker" id="img-7d29b2b3-307">
                <g transform="translate(57.52,38.57)" id="img-7d29b2b3-308">
                  <circle cx="0" cy="0" r="0.9" class="primitive"/>
                </g>
              </g>
            </g>
            <g class="color_" fill-opacity="1" stroke="#065558" fill="#7BBDC0" id="img-7d29b2b3-309">
              <g class="marker" id="img-7d29b2b3-310">
                <g transform="translate(43.96,44.78)" id="img-7d29b2b3-311">
                  <circle cx="0" cy="0" r="0.9" class="primitive"/>
                </g>
              </g>
            </g>
            <g class="color_" fill-opacity="1" stroke="#49645B" fill="#AFCDC3" id="img-7d29b2b3-312">
              <g class="marker" id="img-7d29b2b3-313">
                <g transform="translate(34.79,51.58)" id="img-7d29b2b3-314">
                  <circle cx="0" cy="0" r="0.9" class="primitive"/>
                </g>
              </g>
            </g>
            <g class="color_" fill-opacity="1" stroke="#44655D" fill="#AACEC5" id="img-7d29b2b3-315">
              <g class="marker" id="img-7d29b2b3-316">
                <g transform="translate(41.35,41.25)" id="img-7d29b2b3-317">
                  <circle cx="0" cy="0" r="0.9" class="primitive"/>
                </g>
              </g>
            </g>
            <g class="color_" fill-opacity="1" stroke="#004952" fill="#63AFB8" id="img-7d29b2b3-318">
              <g class="marker" id="img-7d29b2b3-319">
                <g transform="translate(46.4,46.21)" id="img-7d29b2b3-320">
                  <circle cx="0" cy="0" r="0.9" class="primitive"/>
                </g>
              </g>
            </g>
            <g class="color_" fill-opacity="1" stroke="#5E604F" fill="#C6C8B5" id="img-7d29b2b3-321">
              <g class="marker" id="img-7d29b2b3-322">
                <g transform="translate(58.74,33.34)" id="img-7d29b2b3-323">
                  <circle cx="0" cy="0" r="0.9" class="primitive"/>
                </g>
              </g>
            </g>
          </g>
        </g>
        <g stroke-width="1.06" fill="#000000" fill-opacity="0.000" class="geometry" id="img-7d29b2b3-324">
          <g transform="translate(51.13,47.43)" id="img-7d29b2b3-325" class="color_" stroke-dasharray="none" stroke="#006E98">
            <path fill="none" d="M4.57,-6.34 L4.33,-6.37 4.03,-6.41 3.73,-6.45 3.43,-6.48 3.13,-6.51 2.83,-6.54 2.53,-6.56 2.23,-6.58 1.93,-6.6 1.63,-6.62 1.33,-6.63 1.03,-6.64 0.73,-6.65 0.52,-6.65 0.43,-6.66 0.13,-6.66 -0.17,-6.66 -0.47,-6.66 -0.55,-6.65 -0.77,-6.65 -1.07,-6.64 -1.37,-6.63 -1.67,-6.62 -1.97,-6.6 -2.27,-6.58 -2.57,-6.56 -2.87,-6.54 -3.17,-6.51 -3.47,-6.48 -3.77,-6.45 -4.07,-6.41 -4.37,-6.37 -4.61,-6.34 -4.67,-6.33 -4.96,-6.29 -5.26,-6.24 -5.56,-6.19 -5.86,-6.13 -6.16,-6.07 -6.38,-6.03 -6.46,-6.01 -6.76,-5.94 -7.06,-5.87 -7.36,-5.79 -7.66,-5.71 -7.67,-5.71 -7.96,-5.63 -8.26,-5.54 -8.56,-5.44 -8.71,-5.4 -8.86,-5.34 -9.16,-5.24 -9.46,-5.13 -9.57,-5.08 -9.76,-5.01 -10.06,-4.88 -10.32,-4.77 -10.36,-4.75 -10.66,-4.6 -10.96,-4.46 -10.96,-4.45 -11.26,-4.29 -11.54,-4.14 -11.56,-4.12 -11.86,-3.94 -12.04,-3.83 -12.16,-3.75 -12.46,-3.54 -12.5,-3.51 -12.76,-3.31 -12.9,-3.2 -13.06,-3.06 -13.27,-2.88 -13.36,-2.8 -13.6,-2.57 -13.66,-2.5 -13.9,-2.26 -13.96,-2.18 -14.16,-1.94 -14.26,-1.81 -14.4,-1.63 -14.56,-1.4 -14.62,-1.31 -14.81,-1 -14.86,-0.9 -14.98,-0.68 -15.12,-0.37 -15.16,-0.27 -15.25,-0.06 -15.35,0.26 -15.43,0.57 -15.46,0.74 -15.49,0.89 -15.53,1.2 -15.54,1.52 -15.52,1.83 -15.48,2.14 -15.46,2.2 -15.4,2.46 -15.28,2.77 -15.16,3.01 -15.12,3.09 -14.9,3.4 -14.86,3.44 -14.61,3.72 -14.56,3.76 -14.26,4 -14.23,4.03 -13.96,4.2 -13.73,4.34 -13.66,4.38 -13.36,4.52 -13.06,4.65 -13.05,4.66 -12.76,4.76 -12.46,4.86 -12.16,4.95 -12.1,4.97 -11.86,5.03 -11.56,5.1 -11.26,5.17 -10.96,5.24 -10.71,5.29 -10.66,5.3 -10.36,5.34 -10.06,5.39 -9.76,5.43 -9.46,5.47 -9.16,5.51 -8.86,5.55 -8.56,5.59 -8.45,5.6 -8.26,5.62 -7.96,5.64 -7.66,5.67 -7.36,5.69 -7.06,5.71 -6.76,5.74 -6.46,5.76 -6.16,5.78 -5.86,5.79 -5.56,5.81 -5.26,5.83 -4.96,5.84 -4.67,5.86 -4.37,5.87 -4.07,5.88 -3.77,5.89 -3.47,5.9 -3.17,5.91 -3.02,5.92 -2.87,5.92 -2.57,5.92 -2.27,5.93 -1.97,5.93 -1.67,5.94 -1.37,5.94 -1.07,5.94 -0.77,5.95 -0.47,5.95 -0.17,5.95 0.13,5.95 0.43,5.95 0.73,5.95 1.03,5.94 1.33,5.94 1.63,5.94 1.93,5.93 2.23,5.93 2.53,5.92 2.83,5.92 2.99,5.92 3.13,5.91 3.43,5.9 3.73,5.89 4.03,5.88 4.33,5.87 4.63,5.86 4.93,5.84 5.23,5.83 5.53,5.81 5.83,5.79 6.13,5.78 6.43,5.76 6.73,5.74 7.03,5.71 7.33,5.69 7.63,5.67 7.93,5.64 8.23,5.62 8.42,5.6 8.53,5.59 8.83,5.55 9.13,5.51 9.43,5.47 9.73,5.43 10.03,5.39 10.33,5.34 10.63,5.3 10.68,5.29 10.93,5.24 11.23,5.17 11.53,5.1 11.83,5.03 12.07,4.97 12.13,4.95 12.43,4.86 12.73,4.76 13.02,4.66 13.03,4.65 13.33,4.52 13.63,4.38 13.69,4.34 13.93,4.2 14.2,4.03 14.23,4 14.53,3.76 14.58,3.72 14.83,3.44 14.87,3.4 15.09,3.09 15.13,3.01 15.25,2.77 15.37,2.46 15.43,2.2 15.45,2.14 15.49,1.83 15.51,1.52 15.49,1.2 15.46,0.89 15.43,0.74 15.4,0.57 15.32,0.26 15.22,-0.06 15.13,-0.27 15.09,-0.37 14.95,-0.68 14.83,-0.9 14.78,-1 14.59,-1.31 14.53,-1.4 14.37,-1.63 14.23,-1.81 14.13,-1.94 13.93,-2.18 13.87,-2.26 13.63,-2.5 13.57,-2.57 13.33,-2.8 13.24,-2.88 13.03,-3.06 12.87,-3.2 12.73,-3.31 12.46,-3.51 12.43,-3.54 12.13,-3.75 12.01,-3.83 11.83,-3.94 11.53,-4.12 11.5,-4.14 11.23,-4.29 10.93,-4.45 10.93,-4.46 10.63,-4.6 10.33,-4.75 10.28,-4.77 10.03,-4.88 9.73,-5.01 9.54,-5.08 9.43,-5.13 9.13,-5.24 8.83,-5.34 8.67,-5.4 8.53,-5.44 8.23,-5.54 7.93,-5.63 7.64,-5.71 7.63,-5.71 7.33,-5.79 7.03,-5.87 6.73,-5.94 6.43,-6.01 6.35,-6.03 6.13,-6.07 5.83,-6.13 5.53,-6.19 5.23,-6.24 4.93,-6.29 4.63,-6.33 4.57,-6.34 " class="primitive"/>
          </g>
          <g transform="translate(51.13,42.36)" id="img-7d29b2b3-326" class="color_" stroke-dasharray="none" stroke="#B5CCC2">
            <path fill="none" d="M6.73,12.27 L6.43,12.27 6.13,12.27 5.83,12.27 5.53,12.27 5.23,12.27 4.93,12.27 4.63,12.27 4.33,12.27 4.03,12.27 3.73,12.27 3.43,12.27 3.13,12.27 2.83,12.27 2.53,12.27 2.23,12.27 1.93,12.27 1.64,12.27 1.34,12.27 1.04,12.27 0.74,12.27 0.44,12.27 0.14,12.27 -0.16,12.27 -0.46,12.27 -0.76,12.27 -1.06,12.27 -1.36,12.27 -1.66,12.27 -1.96,12.27 -2.26,12.27 -2.56,12.27 -2.86,12.27 -3.16,12.27 -3.46,12.27 -3.76,12.27 -4.06,12.27 -4.36,12.27 -4.66,12.27 -4.96,12.27 -5.26,12.27 -5.56,12.27 -5.86,12.27 -6.16,12.27 -6.46,12.27 -6.76,12.27 -7.06,12.27 -7.36,12.27 -7.66,12.27 -7.96,12.27 -8.26,12.26 -8.56,12.26 -8.86,12.26 -9.16,12.26 -9.46,12.26 -9.76,12.26 -10.06,12.26 -10.36,12.26 -10.66,12.26 -10.96,12.26 -11.26,12.26 -11.56,12.26 -11.86,12.26 -12.16,12.26 -12.46,12.26 -12.76,12.26 -13.06,12.26 -13.36,12.26 -13.66,12.26 -13.96,12.26 -14.26,12.26 -14.56,12.26 -14.86,12.25 -15.16,12.25 -15.46,12.25 -15.76,12.25 -16.06,12.25 -16.36,12.25 -16.66,12.25 -16.96,12.25 -17.26,12.25 -17.56,12.25 -17.86,12.24 -18.16,12.24 -18.28,12.24 -18.46,12.22 -18.76,12.19 -19.06,12.15 -19.36,12.11 -19.66,12.06 -19.96,12.01 -20.26,11.95 -20.35,11.93 -20.56,11.84 -20.86,11.69 -20.98,11.61 -21.16,11.45 -21.29,11.3 -21.46,11.03 -21.48,10.99 -21.59,10.67 -21.67,10.36 -21.74,10.04 -21.76,9.93 -21.78,9.73 -21.81,9.41 -21.83,9.1 -21.85,8.79 -21.87,8.47 -21.88,8.16 -21.89,7.84 -21.89,7.53 -21.9,7.21 -21.9,6.9 -21.9,6.59 -21.9,6.27 -21.9,5.96 -21.89,5.64 -21.89,5.33 -21.88,5.01 -21.88,4.7 -21.87,4.39 -21.86,4.07 -21.85,3.76 -21.84,3.44 -21.83,3.13 -21.82,2.81 -21.8,2.5 -21.79,2.19 -21.78,1.87 -21.76,1.56 -21.76,1.53 -21.74,1.24 -21.71,0.93 -21.68,0.62 -21.66,0.3 -21.63,-0.01 -21.6,-0.33 -21.57,-0.64 -21.53,-0.96 -21.5,-1.27 -21.47,-1.58 -21.46,-1.63 -21.42,-1.9 -21.37,-2.21 -21.32,-2.53 -21.27,-2.84 -21.21,-3.16 -21.16,-3.46 -21.16,-3.47 -21.09,-3.78 -21.01,-4.1 -20.94,-4.41 -20.86,-4.73 -20.86,-4.74 -20.77,-5.04 -20.67,-5.36 -20.57,-5.67 -20.56,-5.71 -20.46,-5.98 -20.33,-6.3 -20.26,-6.48 -20.2,-6.61 -20.05,-6.93 -19.96,-7.12 -19.9,-7.24 -19.72,-7.56 -19.66,-7.66 -19.53,-7.87 -19.36,-8.13 -19.32,-8.18 -19.09,-8.5 -19.06,-8.54 -18.84,-8.81 -18.76,-8.91 -18.56,-9.13 -18.46,-9.23 -18.25,-9.44 -18.16,-9.53 -17.91,-9.76 -17.86,-9.8 -17.56,-10.04 -17.52,-10.07 -17.26,-10.26 -17.09,-10.38 -16.96,-10.47 -16.66,-10.66 -16.61,-10.7 -16.36,-10.84 -16.06,-11.01 -16.06,-11.01 -15.76,-11.17 -15.46,-11.31 -15.43,-11.33 -15.16,-11.45 -14.86,-11.58 -14.71,-11.64 -14.56,-11.7 -14.26,-11.81 -13.96,-11.92 -13.87,-11.96 -13.66,-12.03 -13.36,-12.12 -13.06,-12.22 -12.88,-12.27 -12.76,-12.3 -12.46,-12.39 -12.16,-12.47 -11.86,-12.54 -11.7,-12.58 -11.56,-12.62 -11.26,-12.68 -10.96,-12.75 -10.66,-12.81 -10.36,-12.87 -10.22,-12.9 -10.06,-12.93 -9.76,-12.98 -9.46,-13.03 -9.16,-13.08 -8.86,-13.13 -8.56,-13.17 -8.28,-13.21 -8.26,-13.21 -7.96,-13.25 -7.66,-13.29 -7.36,-13.33 -7.06,-13.36 -6.76,-13.4 -6.46,-13.43 -6.16,-13.46 -5.86,-13.48 -5.56,-13.51 -5.35,-13.53 -5.26,-13.53 -4.96,-13.56 -4.66,-13.58 -4.36,-13.6 -4.06,-13.62 -3.76,-13.63 -3.46,-13.65 -3.16,-13.66 -2.86,-13.67 -2.56,-13.69 -2.26,-13.7 -1.96,-13.71 -1.66,-13.71 -1.36,-13.72 -1.06,-13.72 -0.76,-13.73 -0.46,-13.73 -0.16,-13.73 0.14,-13.73 0.44,-13.73 0.74,-13.73 1.04,-13.72 1.34,-13.72 1.64,-13.71 1.93,-13.71 2.23,-13.7 2.53,-13.69 2.83,-13.67 3.13,-13.66 3.43,-13.65 3.73,-13.63 4.03,-13.62 4.33,-13.6 4.63,-13.58 4.93,-13.56 5.23,-13.53 5.33,-13.53 5.53,-13.51 5.83,-13.48 6.13,-13.46 6.43,-13.43 6.73,-13.4 7.03,-13.36 7.33,-13.33 7.63,-13.29 7.93,-13.25 8.23,-13.21 8.25,-13.21 8.53,-13.17 8.83,-13.13 9.13,-13.08 9.43,-13.03 9.73,-12.98 10.03,-12.93 10.19,-12.9 10.33,-12.87 10.63,-12.81 10.93,-12.75 11.23,-12.68 11.53,-12.62 11.67,-12.58 11.83,-12.54 12.13,-12.47 12.43,-12.39 12.73,-12.3 12.85,-12.27 13.03,-12.22 13.33,-12.12 13.63,-12.03 13.84,-11.96 13.93,-11.92 14.23,-11.81 14.53,-11.7 14.68,-11.64 14.83,-11.58 15.13,-11.45 15.4,-11.33 15.43,-11.31 15.73,-11.17 16.03,-11.01 16.03,-11.01 16.33,-10.84 16.58,-10.7 16.63,-10.66 16.93,-10.47 17.06,-10.38 17.23,-10.26 17.49,-10.07 17.53,-10.04 17.83,-9.8 17.88,-9.76 18.13,-9.53 18.22,-9.44 18.43,-9.23 18.53,-9.13 18.73,-8.91 18.81,-8.81 19.03,-8.54 19.06,-8.5 19.29,-8.18 19.33,-8.13 19.5,-7.87 19.63,-7.66 19.69,-7.56 19.87,-7.24 19.93,-7.12 20.02,-6.93 20.17,-6.61 20.23,-6.48 20.3,-6.3 20.43,-5.98 20.53,-5.71 20.54,-5.67 20.64,-5.36 20.74,-5.04 20.83,-4.74 20.83,-4.73 20.91,-4.41 20.99,-4.1 21.06,-3.78 21.13,-3.47 21.13,-3.46 21.19,-3.16 21.24,-2.84 21.29,-2.53 21.34,-2.21 21.39,-1.9 21.43,-1.63 21.44,-1.58 21.47,-1.27 21.5,-0.96 21.54,-0.64 21.57,-0.33 21.6,-0.01 21.63,0.3 21.66,0.62 21.68,0.93 21.71,1.24 21.73,1.53 21.73,1.56 21.75,1.87 21.76,2.19 21.78,2.5 21.79,2.81 21.8,3.13 21.81,3.44 21.82,3.76 21.83,4.07 21.84,4.39 21.85,4.7 21.85,5.01 21.86,5.33 21.86,5.64 21.87,5.96 21.87,6.27 21.87,6.59 21.87,6.9 21.87,7.21 21.86,7.53 21.86,7.84 21.85,8.16 21.84,8.47 21.82,8.79 21.8,9.1 21.78,9.41 21.75,9.73 21.73,9.93 21.71,10.04 21.64,10.36 21.56,10.67 21.45,10.99 21.43,11.03 21.26,11.3 21.13,11.45 20.96,11.61 20.83,11.69 20.53,11.84 20.32,11.93 20.23,11.95 19.93,12.01 19.63,12.06 19.33,12.11 19.03,12.15 18.73,12.19 18.43,12.22 18.25,12.24 18.13,12.24 17.83,12.24 17.53,12.25 17.23,12.25 16.93,12.25 16.63,12.25 16.33,12.25 16.03,12.25 15.73,12.25 15.43,12.25 15.13,12.25 14.83,12.25 14.53,12.26 14.23,12.26 13.93,12.26 13.63,12.26 13.33,12.26 13.03,12.26 12.73,12.26 12.43,12.26 12.13,12.26 11.83,12.26 11.53,12.26 11.23,12.26 10.93,12.26 10.63,12.26 10.33,12.26 10.03,12.26 9.73,12.26 9.43,12.26 9.13,12.26 8.83,12.26 8.53,12.26 8.23,12.26 7.93,12.27 7.63,12.27 7.33,12.27 7.03,12.27 6.73,12.27 " class="primitive"/>
          </g>
          <g transform="translate(51.13,39.91)" id="img-7d29b2b3-327" class="color_" stroke-dasharray="none" stroke="#C4C9B6">
            <path fill="none" d="M6.74,14.74 L6.44,14.74 6.14,14.75 5.84,14.75 5.54,14.75 5.24,14.75 4.94,14.75 4.64,14.75 4.34,14.75 4.04,14.75 3.74,14.75 3.44,14.75 3.14,14.75 2.84,14.75 2.54,14.75 2.24,14.75 1.94,14.75 1.64,14.75 1.34,14.75 1.04,14.75 0.74,14.75 0.44,14.75 0.14,14.75 -0.16,14.75 -0.46,14.75 -0.76,14.75 -1.06,14.75 -1.36,14.75 -1.66,14.75 -1.96,14.75 -2.26,14.75 -2.56,14.75 -2.86,14.75 -3.16,14.75 -3.46,14.75 -3.76,14.75 -4.06,14.75 -4.36,14.75 -4.66,14.75 -4.96,14.75 -5.26,14.75 -5.56,14.75 -5.86,14.75 -6.16,14.75 -6.46,14.74 -6.76,14.74 -7.06,14.74 -7.36,14.74 -7.66,14.74 -7.96,14.74 -8.26,14.74 -8.56,14.74 -8.86,14.74 -9.16,14.74 -9.46,14.74 -9.76,14.74 -10.06,14.74 -10.36,14.74 -10.66,14.74 -10.96,14.74 -11.26,14.74 -11.56,14.74 -11.86,14.74 -12.16,14.74 -12.46,14.74 -12.76,14.74 -13.06,14.74 -13.36,14.74 -13.66,14.74 -13.96,14.74 -14.26,14.73 -14.56,14.73 -14.86,14.73 -15.16,14.73 -15.46,14.73 -15.76,14.73 -16.06,14.73 -16.36,14.73 -16.66,14.73 -16.96,14.73 -17.26,14.73 -17.56,14.72 -17.86,14.72 -18.16,14.72 -18.46,14.72 -18.76,14.72 -19.06,14.72 -19.36,14.71 -19.66,14.71 -19.96,14.71 -20.26,14.71 -20.56,14.7 -20.86,14.7 -21.16,14.69 -21.46,14.69 -21.54,14.69 -21.76,14.55 -21.94,14.37 -22.06,14.16 -22.08,14.06 -22.11,13.74 -22.14,13.43 -22.16,13.11 -22.17,12.8 -22.19,12.49 -22.2,12.17 -22.2,11.86 -22.21,11.54 -22.22,11.23 -22.22,10.91 -22.23,10.6 -22.23,10.29 -22.23,9.97 -22.23,9.66 -22.23,9.34 -22.23,9.03 -22.23,8.71 -22.23,8.4 -22.23,8.09 -22.23,7.77 -22.23,7.46 -22.23,7.14 -22.22,6.83 -22.22,6.52 -22.22,6.2 -22.21,5.89 -22.21,5.57 -22.21,5.26 -22.2,4.94 -22.2,4.63 -22.2,4.32 -22.19,4 -22.19,3.69 -22.18,3.37 -22.18,3.06 -22.17,2.74 -22.17,2.43 -22.16,2.12 -22.15,1.8 -22.15,1.49 -22.14,1.17 -22.14,0.86 -22.13,0.54 -22.12,0.23 -22.12,-0.08 -22.11,-0.4 -22.1,-0.71 -22.09,-1.03 -22.09,-1.34 -22.08,-1.66 -22.07,-1.97 -22.06,-2.28 -22.06,-2.45 -22.05,-2.6 -22.02,-2.91 -21.99,-3.23 -21.97,-3.54 -21.94,-3.86 -21.91,-4.17 -21.88,-4.48 -21.85,-4.8 -21.82,-5.11 -21.79,-5.43 -21.76,-5.71 -21.75,-5.74 -21.7,-6.06 -21.65,-6.37 -21.59,-6.68 -21.54,-7 -21.48,-7.31 -21.46,-7.42 -21.41,-7.63 -21.32,-7.94 -21.24,-8.25 -21.16,-8.55 -21.15,-8.57 -21.04,-8.88 -20.93,-9.2 -20.86,-9.38 -20.8,-9.51 -20.66,-9.83 -20.56,-10.04 -20.5,-10.14 -20.33,-10.45 -20.26,-10.57 -20.13,-10.77 -19.96,-11.01 -19.91,-11.08 -19.66,-11.4 -19.66,-11.4 -19.38,-11.71 -19.36,-11.73 -19.06,-12.02 -19.06,-12.03 -18.76,-12.28 -18.69,-12.34 -18.46,-12.52 -18.27,-12.65 -18.16,-12.73 -17.86,-12.93 -17.79,-12.97 -17.56,-13.11 -17.26,-13.27 -17.24,-13.28 -16.96,-13.42 -16.66,-13.57 -16.59,-13.6 -16.36,-13.7 -16.06,-13.82 -15.82,-13.91 -15.76,-13.93 -15.46,-14.04 -15.16,-14.14 -14.91,-14.23 -14.86,-14.24 -14.56,-14.33 -14.26,-14.42 -13.96,-14.5 -13.8,-14.54 -13.66,-14.57 -13.36,-14.65 -13.06,-14.72 -12.76,-14.78 -12.46,-14.84 -12.41,-14.85 -12.16,-14.9 -11.86,-14.96 -11.56,-15.01 -11.26,-15.07 -10.96,-15.11 -10.66,-15.16 -10.61,-15.17 -10.36,-15.21 -10.06,-15.25 -9.76,-15.29 -9.46,-15.33 -9.16,-15.36 -8.86,-15.4 -8.56,-15.43 -8.26,-15.46 -8.08,-15.48 -7.96,-15.49 -7.66,-15.52 -7.36,-15.55 -7.06,-15.58 -6.76,-15.6 -6.46,-15.62 -6.16,-15.65 -5.86,-15.67 -5.56,-15.69 -5.26,-15.7 -4.96,-15.72 -4.66,-15.74 -4.36,-15.75 -4.06,-15.77 -3.76,-15.78 -3.46,-15.79 -3.32,-15.8 -3.16,-15.8 -2.86,-15.81 -2.56,-15.82 -2.26,-15.83 -1.96,-15.84 -1.66,-15.84 -1.36,-15.85 -1.06,-15.85 -0.76,-15.85 -0.46,-15.85 -0.16,-15.85 0.14,-15.85 0.44,-15.85 0.74,-15.85 1.04,-15.85 1.34,-15.85 1.64,-15.84 1.94,-15.84 2.24,-15.83 2.54,-15.82 2.84,-15.81 3.14,-15.8 3.29,-15.8 3.44,-15.79 3.74,-15.78 4.04,-15.77 4.34,-15.75 4.64,-15.74 4.94,-15.72 5.24,-15.7 5.54,-15.69 5.84,-15.67 6.14,-15.65 6.44,-15.62 6.74,-15.6 7.04,-15.58 7.34,-15.55 7.64,-15.52 7.94,-15.49 8.05,-15.48 8.24,-15.46 8.53,-15.43 8.83,-15.4 9.13,-15.36 9.43,-15.33 9.73,-15.29 10.03,-15.25 10.33,-15.21 10.59,-15.17 10.63,-15.16 10.93,-15.11 11.23,-15.07 11.53,-15.01 11.83,-14.96 12.13,-14.9 12.38,-14.85 12.43,-14.84 12.73,-14.78 13.03,-14.72 13.33,-14.65 13.63,-14.57 13.77,-14.54 13.93,-14.5 14.23,-14.42 14.53,-14.33 14.83,-14.24 14.88,-14.23 15.13,-14.14 15.43,-14.04 15.73,-13.93 15.8,-13.91 16.03,-13.82 16.33,-13.7 16.56,-13.6 16.63,-13.57 16.93,-13.42 17.21,-13.28 17.23,-13.27 17.53,-13.11 17.77,-12.97 17.83,-12.93 18.13,-12.73 18.25,-12.65 18.43,-12.52 18.66,-12.34 18.73,-12.28 19.03,-12.03 19.03,-12.02 19.33,-11.73 19.35,-11.71 19.63,-11.4 19.63,-11.4 19.88,-11.08 19.93,-11.01 20.1,-10.77 20.23,-10.57 20.3,-10.45 20.48,-10.14 20.53,-10.04 20.63,-9.83 20.78,-9.51 20.83,-9.38 20.9,-9.2 21.01,-8.88 21.13,-8.57 21.13,-8.55 21.21,-8.25 21.3,-7.94 21.38,-7.63 21.43,-7.42 21.45,-7.31 21.51,-7 21.56,-6.68 21.62,-6.37 21.67,-6.06 21.73,-5.74 21.73,-5.71 21.76,-5.43 21.79,-5.11 21.82,-4.8 21.85,-4.48 21.88,-4.17 21.91,-3.86 21.94,-3.54 21.97,-3.23 21.99,-2.91 22.02,-2.6 22.03,-2.45 22.04,-2.28 22.04,-1.97 22.05,-1.66 22.06,-1.34 22.07,-1.03 22.07,-0.71 22.08,-0.4 22.09,-0.08 22.1,0.23 22.1,0.54 22.11,0.86 22.11,1.17 22.12,1.49 22.13,1.8 22.13,2.12 22.14,2.43 22.14,2.74 22.15,3.06 22.15,3.37 22.16,3.69 22.16,4 22.17,4.32 22.17,4.63 22.18,4.94 22.18,5.26 22.18,5.57 22.19,5.89 22.19,6.2 22.19,6.52 22.2,6.83 22.2,7.14 22.2,7.46 22.2,7.77 22.2,8.09 22.2,8.4 22.2,8.71 22.2,9.03 22.2,9.34 22.2,9.66 22.2,9.97 22.2,10.29 22.2,10.6 22.19,10.91 22.19,11.23 22.18,11.54 22.18,11.86 22.17,12.17 22.16,12.49 22.15,12.8 22.13,13.11 22.11,13.43 22.09,13.74 22.05,14.06 22.03,14.16 21.91,14.37 21.73,14.55 21.51,14.69 21.43,14.69 21.13,14.69 20.83,14.7 20.53,14.7 20.23,14.71 19.93,14.71 19.63,14.71 19.33,14.71 19.03,14.72 18.73,14.72 18.43,14.72 18.13,14.72 17.83,14.72 17.53,14.72 17.23,14.73 16.93,14.73 16.63,14.73 16.33,14.73 16.03,14.73 15.73,14.73 15.43,14.73 15.13,14.73 14.83,14.73 14.53,14.73 14.23,14.73 13.93,14.74 13.63,14.74 13.33,14.74 13.03,14.74 12.73,14.74 12.43,14.74 12.13,14.74 11.83,14.74 11.53,14.74 11.23,14.74 10.93,14.74 10.63,14.74 10.33,14.74 10.03,14.74 9.73,14.74 9.43,14.74 9.13,14.74 8.83,14.74 8.53,14.74 8.24,14.74 7.94,14.74 7.64,14.74 7.34,14.74 7.04,14.74 6.74,14.74 " class="primitive"/>
          </g>
          <g transform="translate(51.12,54.62)" id="img-7d29b2b3-328" class="color_" stroke-dasharray="none" stroke="#D2B497">
            <path fill="none" d="M-22.35,-1.29 L-22.35,-1.28 -22.32,-0.96 -22.28,-0.65 -22.23,-0.34 -22.14,-0.02 -22.05,-0.01 -21.75,0.01 -21.45,0.02 -21.15,0.02 -20.85,0.03 -20.55,0.03 -20.25,0.03 -19.95,0.04 -19.65,0.04 -19.35,0.04 -19.05,0.04 -18.75,0.05 -18.45,0.05 -18.15,0.05 -17.85,0.05 -17.55,0.05 -17.25,0.05 -16.95,0.05 -16.65,0.06 -16.35,0.06 -16.05,0.06 -15.75,0.06 -15.45,0.06 -15.15,0.06 -14.85,0.06 -14.55,0.06 -14.25,0.06 -13.95,0.06 -13.65,0.06 -13.35,0.06 -13.05,0.07 -12.75,0.07 -12.45,0.07 -12.15,0.07 -11.85,0.07 -11.55,0.07 -11.25,0.07 -10.95,0.07 -10.65,0.07 -10.35,0.07 -10.05,0.07 -9.75,0.07 -9.45,0.07 -9.15,0.07 -8.85,0.07 -8.55,0.07 -8.25,0.07 -7.95,0.07 -7.65,0.07 -7.35,0.07 -7.05,0.07 -6.75,0.07 -6.45,0.07 -6.15,0.07 -5.85,0.07 -5.55,0.07 -5.25,0.07 -4.95,0.07 -4.65,0.07 -4.35,0.07 -4.05,0.07 -3.75,0.07 -3.45,0.07 -3.15,0.07 -2.85,0.07 -2.55,0.07 -2.25,0.07 -1.95,0.07 -1.65,0.07 -1.35,0.07 -1.05,0.07 -0.75,0.07 -0.45,0.07 -0.15,0.07 0.15,0.07 0.45,0.07 0.75,0.07 1.05,0.07 1.35,0.07 1.65,0.07 1.95,0.07 2.25,0.07 2.55,0.07 2.85,0.07 3.15,0.07 3.45,0.07 3.75,0.07 4.05,0.07 4.35,0.07 4.65,0.07 4.95,0.07 5.25,0.07 5.55,0.07 5.85,0.07 6.15,0.07 6.45,0.07 6.75,0.07 7.05,0.07 7.35,0.07 7.65,0.07 7.95,0.07 8.25,0.07 8.55,0.07 8.85,0.07 9.15,0.07 9.45,0.07 9.75,0.07 10.05,0.07 10.35,0.07 10.65,0.07 10.95,0.07 11.25,0.07 11.55,0.07 11.85,0.07 12.15,0.07 12.45,0.07 12.75,0.07 13.05,0.07 13.35,0.06 13.65,0.06 13.95,0.06 14.25,0.06 14.55,0.06 14.85,0.06 15.15,0.06 15.45,0.06 15.75,0.06 16.05,0.06 16.35,0.06 16.65,0.06 16.95,0.05 17.25,0.05 17.55,0.05 17.85,0.05 18.15,0.05 18.45,0.05 18.75,0.05 19.05,0.04 19.35,0.04 19.65,0.04 19.95,0.04 20.25,0.03 20.55,0.03 20.85,0.03 21.15,0.02 21.45,0.02 21.75,0.01 22.05,-0.01 22.14,-0.02 22.23,-0.34 22.28,-0.65 22.32,-0.96 22.35,-1.28 22.35,-1.29 " class="primitive"/>
          </g>
          <g transform="translate(51.12,26.13)" id="img-7d29b2b3-329" class="color_" stroke-dasharray="none" stroke="#D2B497">
            <path fill="none" d="M22.35,14.8 L22.34,14.64 22.34,14.33 22.33,14.01 22.32,13.7 22.32,13.38 22.31,13.07 22.3,12.75 22.3,12.44 22.29,12.13 22.28,11.81 22.27,11.5 22.26,11.18 22.26,10.87 22.25,10.55 22.24,10.24 22.23,9.93 22.22,9.61 22.21,9.3 22.2,8.98 22.19,8.67 22.18,8.35 22.18,8.04 22.17,7.73 22.16,7.41 22.15,7.1 22.14,6.78 22.12,6.47 22.11,6.15 22.1,5.84 22.09,5.53 22.08,5.21 22.07,4.9 22.06,4.58 22.05,4.29 22.04,4.27 22,3.95 21.96,3.64 21.92,3.33 21.88,3.01 21.84,2.7 21.8,2.38 21.75,2.07 21.75,2.04 21.68,1.76 21.6,1.44 21.53,1.13 21.45,0.81 21.45,0.81 21.34,0.5 21.22,0.18 21.15,-0.03 21.1,-0.13 20.95,-0.44 20.85,-0.64 20.78,-0.76 20.58,-1.07 20.55,-1.13 20.36,-1.39 20.25,-1.53 20.1,-1.7 19.95,-1.87 19.79,-2.02 19.65,-2.15 19.44,-2.33 19.35,-2.41 19.05,-2.63 19.03,-2.64 18.75,-2.83 18.53,-2.96 18.45,-3.01 18.15,-3.17 17.94,-3.27 17.85,-3.32 17.55,-3.46 17.25,-3.58 17.24,-3.59 16.95,-3.7 16.65,-3.81 16.37,-3.9 16.35,-3.91 16.05,-4 15.75,-4.09 15.45,-4.17 15.29,-4.22 15.15,-4.25 14.85,-4.33 14.55,-4.4 14.25,-4.46 13.95,-4.52 13.92,-4.53 13.65,-4.58 13.35,-4.64 13.05,-4.69 12.75,-4.74 12.45,-4.79 12.15,-4.84 12.1,-4.84 11.85,-4.88 11.55,-4.92 11.25,-4.96 10.95,-5 10.65,-5.04 10.35,-5.07 10.05,-5.1 9.75,-5.14 9.52,-5.16 9.45,-5.17 9.15,-5.19 8.85,-5.22 8.55,-5.25 8.25,-5.27 7.95,-5.29 7.65,-5.32 7.35,-5.34 7.05,-5.36 6.75,-5.38 6.45,-5.39 6.15,-5.41 5.85,-5.43 5.55,-5.44 5.25,-5.46 4.95,-5.47 4.91,-5.47 4.65,-5.48 4.35,-5.5 4.05,-5.51 3.75,-5.52 3.45,-5.52 3.15,-5.53 2.85,-5.54 2.55,-5.55 2.25,-5.55 1.95,-5.56 1.65,-5.56 1.35,-5.57 1.05,-5.57 0.75,-5.57 0.45,-5.57 0.15,-5.57 -0.15,-5.57 -0.45,-5.57 -0.75,-5.57 -1.05,-5.57 -1.35,-5.57 -1.65,-5.56 -1.95,-5.56 -2.25,-5.55 -2.55,-5.55 -2.85,-5.54 -3.15,-5.53 -3.45,-5.52 -3.75,-5.52 -4.05,-5.51 -4.35,-5.5 -4.65,-5.48 -4.91,-5.47 -4.95,-5.47 -5.25,-5.46 -5.55,-5.44 -5.85,-5.43 -6.15,-5.41 -6.45,-5.39 -6.75,-5.38 -7.05,-5.36 -7.35,-5.34 -7.65,-5.32 -7.95,-5.29 -8.25,-5.27 -8.55,-5.25 -8.85,-5.22 -9.15,-5.19 -9.45,-5.17 -9.52,-5.16 -9.75,-5.14 -10.05,-5.1 -10.35,-5.07 -10.65,-5.04 -10.95,-5 -11.25,-4.96 -11.55,-4.92 -11.85,-4.88 -12.1,-4.84 -12.15,-4.84 -12.45,-4.79 -12.75,-4.74 -13.05,-4.69 -13.35,-4.64 -13.65,-4.58 -13.92,-4.53 -13.95,-4.52 -14.25,-4.46 -14.55,-4.4 -14.85,-4.33 -15.15,-4.25 -15.29,-4.22 -15.45,-4.17 -15.75,-4.09 -16.05,-4 -16.35,-3.91 -16.37,-3.9 -16.65,-3.81 -16.95,-3.7 -17.24,-3.59 -17.25,-3.58 -17.55,-3.46 -17.85,-3.32 -17.94,-3.27 -18.15,-3.17 -18.45,-3.01 -18.53,-2.96 -18.75,-2.83 -19.03,-2.64 -19.05,-2.63 -19.35,-2.41 -19.44,-2.33 -19.65,-2.15 -19.79,-2.02 -19.95,-1.87 -20.1,-1.7 -20.25,-1.53 -20.36,-1.39 -20.55,-1.13 -20.58,-1.07 -20.78,-0.76 -20.85,-0.64 -20.95,-0.44 -21.1,-0.13 -21.15,-0.03 -21.22,0.18 -21.34,0.5 -21.45,0.81 -21.45,0.81 -21.53,1.13 -21.6,1.44 -21.68,1.76 -21.75,2.04 -21.75,2.07 -21.8,2.38 -21.84,2.7 -21.88,3.01 -21.92,3.33 -21.96,3.64 -22,3.95 -22.04,4.27 -22.05,4.29 -22.06,4.58 -22.07,4.9 -22.08,5.21 -22.09,5.53 -22.1,5.84 -22.11,6.15 -22.12,6.47 -22.14,6.78 -22.15,7.1 -22.16,7.41 -22.17,7.73 -22.18,8.04 -22.18,8.35 -22.19,8.67 -22.2,8.98 -22.21,9.3 -22.22,9.61 -22.23,9.93 -22.24,10.24 -22.25,10.55 -22.26,10.87 -22.26,11.18 -22.27,11.5 -22.28,11.81 -22.29,12.13 -22.3,12.44 -22.3,12.75 -22.31,13.07 -22.32,13.38 -22.32,13.7 -22.33,14.01 -22.34,14.33 -22.34,14.64 -22.35,14.8 " class="primitive"/>
          </g>
          <g transform="translate(51.12,21.46)" id="img-7d29b2b3-330" class="color_" stroke-dasharray="none" stroke="#9B4E4D">
            <path fill="none" d="M-22.35,11.16 L-22.35,11.14 -22.34,10.83 -22.32,10.51 -22.31,10.2 -22.3,9.88 -22.29,9.57 -22.28,9.25 -22.27,8.94 -22.25,8.63 -22.24,8.31 -22.23,8 -22.22,7.68 -22.2,7.37 -22.19,7.05 -22.18,6.74 -22.16,6.43 -22.15,6.11 -22.14,5.8 -22.12,5.48 -22.11,5.17 -22.09,4.85 -22.08,4.54 -22.06,4.23 -22.05,3.95 -22.04,3.91 -21.99,3.6 -21.93,3.28 -21.88,2.97 -21.82,2.65 -21.76,2.34 -21.75,2.25 -21.68,2.03 -21.58,1.71 -21.47,1.4 -21.45,1.31 -21.34,1.08 -21.19,0.77 -21.15,0.68 -21.01,0.45 -20.85,0.2 -20.8,0.14 -20.55,-0.17 -20.55,-0.17 -20.25,-0.48 -20.24,-0.49 -19.95,-0.74 -19.87,-0.8 -19.65,-0.97 -19.42,-1.12 -19.35,-1.16 -19.05,-1.33 -18.86,-1.43 -18.75,-1.49 -18.45,-1.63 -18.18,-1.74 -18.15,-1.76 -17.85,-1.87 -17.55,-1.98 -17.3,-2.06 -17.25,-2.08 -16.95,-2.17 -16.65,-2.25 -16.35,-2.33 -16.18,-2.37 -16.05,-2.41 -15.75,-2.47 -15.45,-2.54 -15.15,-2.6 -14.85,-2.66 -14.69,-2.69 -14.55,-2.71 -14.25,-2.76 -13.95,-2.81 -13.65,-2.86 -13.35,-2.9 -13.05,-2.95 -12.75,-2.99 -12.62,-3 -12.45,-3.02 -12.15,-3.06 -11.85,-3.09 -11.55,-3.13 -11.25,-3.16 -10.95,-3.19 -10.65,-3.22 -10.35,-3.24 -10.05,-3.27 -9.75,-3.29 -9.46,-3.32 -9.45,-3.32 -9.15,-3.34 -8.85,-3.36 -8.55,-3.38 -8.25,-3.4 -7.95,-3.42 -7.65,-3.44 -7.35,-3.45 -7.05,-3.47 -6.75,-3.48 -6.45,-3.5 -6.15,-3.51 -5.85,-3.52 -5.55,-3.53 -5.25,-3.55 -4.95,-3.56 -4.65,-3.57 -4.35,-3.58 -4.05,-3.58 -3.75,-3.59 -3.45,-3.6 -3.15,-3.61 -2.85,-3.61 -2.55,-3.62 -2.25,-3.62 -1.95,-3.63 -1.65,-3.63 -1.55,-3.63 -1.35,-3.63 -1.05,-3.63 -0.75,-3.64 -0.45,-3.64 -0.15,-3.64 0.15,-3.64 0.45,-3.64 0.75,-3.64 1.05,-3.63 1.35,-3.63 1.55,-3.63 1.65,-3.63 1.95,-3.63 2.25,-3.62 2.55,-3.62 2.85,-3.61 3.15,-3.61 3.45,-3.6 3.75,-3.59 4.05,-3.58 4.35,-3.58 4.65,-3.57 4.95,-3.56 5.25,-3.55 5.55,-3.53 5.85,-3.52 6.15,-3.51 6.45,-3.5 6.75,-3.48 7.05,-3.47 7.35,-3.45 7.65,-3.44 7.95,-3.42 8.25,-3.4 8.55,-3.38 8.85,-3.36 9.15,-3.34 9.45,-3.32 9.46,-3.32 9.75,-3.29 10.05,-3.27 10.35,-3.24 10.65,-3.22 10.95,-3.19 11.25,-3.16 11.55,-3.13 11.85,-3.09 12.15,-3.06 12.45,-3.02 12.62,-3 12.75,-2.99 13.05,-2.95 13.35,-2.9 13.65,-2.86 13.95,-2.81 14.25,-2.76 14.55,-2.71 14.69,-2.69 14.85,-2.66 15.15,-2.6 15.45,-2.54 15.75,-2.47 16.05,-2.41 16.18,-2.37 16.35,-2.33 16.65,-2.25 16.95,-2.17 17.25,-2.08 17.3,-2.06 17.55,-1.98 17.85,-1.87 18.15,-1.76 18.18,-1.74 18.45,-1.63 18.75,-1.49 18.86,-1.43 19.05,-1.33 19.35,-1.16 19.42,-1.12 19.65,-0.97 19.87,-0.8 19.95,-0.74 20.24,-0.49 20.25,-0.48 20.55,-0.17 20.55,-0.17 20.8,0.14 20.85,0.2 21.01,0.45 21.15,0.68 21.19,0.77 21.34,1.08 21.45,1.31 21.47,1.4 21.58,1.71 21.68,2.03 21.75,2.25 21.76,2.34 21.82,2.65 21.88,2.97 21.93,3.28 21.99,3.6 22.04,3.91 22.05,3.95 22.06,4.23 22.08,4.54 22.09,4.85 22.11,5.17 22.12,5.48 22.14,5.8 22.15,6.11 22.16,6.43 22.18,6.74 22.19,7.05 22.2,7.37 22.22,7.68 22.23,8 22.24,8.31 22.25,8.63 22.27,8.94 22.28,9.25 22.29,9.57 22.3,9.88 22.31,10.2 22.32,10.51 22.34,10.83 22.35,11.14 22.35,11.16 " class="primitive"/>
          </g>
          <g transform="translate(51.12,54.72)" id="img-7d29b2b3-331" class="color_" stroke-dasharray="none" stroke="#9B4E4D">
            <path fill="none" d="M-22.35,-0.11 L-22.05,-0.07 -21.75,-0.05 -21.45,-0.04 -21.15,-0.04 -20.85,-0.03 -20.55,-0.03 -20.25,-0.02 -19.95,-0.02 -19.65,-0.02 -19.35,-0.02 -19.05,-0.02 -18.75,-0.01 -18.45,-0.01 -18.15,-0.01 -17.85,-0.01 -17.55,-0.01 -17.25,-0.01 -16.95,-0 -16.65,-0 -16.35,-0 -16.05,-0 -15.75,-0 -15.45,-0 -15.15,0 -14.85,0 -14.55,0 -14.25,0 -13.95,0 -13.65,0 -13.35,0 -13.05,0.01 -12.75,0.01 -12.45,0.01 -12.15,0.01 -11.85,0.01 -11.55,0.01 -11.25,0.01 -10.95,0.01 -10.65,0.01 -10.35,0.01 -10.05,0.01 -9.75,0.01 -9.45,0.01 -9.15,0.01 -8.85,0.01 -8.55,0.01 -8.25,0.01 -7.95,0.01 -7.65,0.01 -7.35,0.01 -7.05,0.01 -6.75,0.01 -6.45,0.01 -6.15,0.01 -5.85,0.01 -5.55,0.01 -5.25,0.01 -4.95,0.01 -4.65,0.01 -4.35,0.01 -4.05,0.01 -3.75,0.01 -3.45,0.01 -3.15,0.01 -2.85,0.01 -2.55,0.01 -2.25,0.01 -1.95,0.01 -1.65,0.01 -1.35,0.01 -1.05,0.02 -0.75,0.02 -0.45,0.02 -0.15,0.02 0.15,0.02 0.45,0.02 0.75,0.02 1.05,0.02 1.35,0.01 1.65,0.01 1.95,0.01 2.25,0.01 2.55,0.01 2.85,0.01 3.15,0.01 3.45,0.01 3.75,0.01 4.05,0.01 4.35,0.01 4.65,0.01 4.95,0.01 5.25,0.01 5.55,0.01 5.85,0.01 6.15,0.01 6.45,0.01 6.75,0.01 7.05,0.01 7.35,0.01 7.65,0.01 7.95,0.01 8.25,0.01 8.55,0.01 8.85,0.01 9.15,0.01 9.45,0.01 9.75,0.01 10.05,0.01 10.35,0.01 10.65,0.01 10.95,0.01 11.25,0.01 11.55,0.01 11.85,0.01 12.15,0.01 12.45,0.01 12.75,0.01 13.05,0.01 13.35,0 13.65,0 13.95,0 14.25,0 14.55,0 14.85,0 15.15,0 15.45,-0 15.75,-0 16.05,-0 16.35,-0 16.65,-0 16.95,-0 17.25,-0.01 17.55,-0.01 17.85,-0.01 18.15,-0.01 18.45,-0.01 18.75,-0.01 19.05,-0.02 19.35,-0.02 19.65,-0.02 19.95,-0.02 20.25,-0.02 20.55,-0.03 20.85,-0.03 21.15,-0.04 21.45,-0.04 21.75,-0.05 22.05,-0.07 22.35,-0.11 " class="primitive"/>
          </g>
        </g>
      </g>
    </g>
  </g>
  <g class="guide ylabels" font-size="2.82" font-family="'PT Sans Caption','Helvetica Neue','Helvetica',sans-serif" fill="#6C606B" id="img-7d29b2b3-332">
    <g transform="translate(25.72,54.91)" id="img-7d29b2b3-333">
      <g class="primitive">
        <text text-anchor="end" dy="0.35em">0</text>
      </g>
    </g>
    <g transform="translate(25.72,30.96)" id="img-7d29b2b3-334">
      <g class="primitive">
        <text text-anchor="end" dy="0.35em">5.010</text>
      </g>
    </g>
    <g transform="translate(25.72,7)" id="img-7d29b2b3-335">
      <g class="primitive">
        <text text-anchor="end" dy="0.35em">1.010</text>
      </g>
    </g>
  </g>
  <g font-size="3.88" font-family="'PT Sans','Helvetica Neue','Helvetica',sans-serif" fill="#564A55" stroke="#000000" stroke-opacity="0.000" id="img-7d29b2b3-336">
    <g transform="translate(8.81,28.96)" id="img-7d29b2b3-337">
      <g class="primitive">
        <text text-anchor="middle" dy="0.35em" transform="rotate(-90,0, 2)">ymin</text>
      </g>
    </g>
  </g>
</g>
<defs>
  <clipPath id="img-7d29b2b3-9">
    <path d="M26.72,5 L75.51,5 75.51,56.91 26.72,56.91 " />
  </clipPath>
</defs>
</svg>
