<?xml version="1.0" encoding="UTF-8"?>
<svg xmlns="http://www.w3.org/2000/svg"
     xmlns:xlink="http://www.w3.org/1999/xlink"
     xmlns:gadfly="http://www.gadflyjl.org/ns"
     version="1.2"
     width="101.6mm" height="76.2mm" viewBox="0 0 101.6 76.2"
     stroke="none"
     fill="#000000"
     stroke-width="0.3"
     font-size="3.88"
>
<defs>
  <marker id="arrow" markerWidth="15" markerHeight="7" refX="5" refY="3.5" orient="auto" markerUnits="strokeWidth">
    <path d="M0,0 L15,3.5 L0,7 z" stroke="context-stroke" fill="context-stroke"/>
  </marker>
</defs>
<g class="plotroot xscalable yscalable" id="img-0dd52395-1">
  <g font-size="3.88" font-family="'PT Sans','Helvetica Neue','Helvetica',sans-serif" fill="#564A55" stroke="#000000" stroke-opacity="0.000" id="img-0dd52395-2">
    <g transform="translate(60.96,64.59)">
      <g class="primitive">
        <text text-anchor="middle" dy="0.6em">y</text>
      </g>
    </g>
  </g>
  <g class="guide xlabels" font-size="2.82" font-family="'PT Sans Caption','Helvetica Neue','Helvetica',sans-serif" fill="#6C606B" id="img-0dd52395-3">
    <g transform="translate(27.32,57.91)">
      <g class="primitive">
        <text text-anchor="middle" dy="0.6em">0</text>
      </g>
    </g>
    <g transform="translate(60.96,57.91)">
      <g class="primitive">
        <text text-anchor="middle" dy="0.6em">50,000</text>
      </g>
    </g>
    <g transform="translate(94.6,57.91)">
      <g class="primitive">
        <text text-anchor="middle" dy="0.6em">100,000</text>
      </g>
    </g>
  </g>
  <g clip-path="url(#img-0dd52395-4)">
    <g id="img-0dd52395-5">
      <g pointer-events="visible" stroke-width="0.3" fill="#000000" fill-opacity="0.000" stroke="#000000" stroke-opacity="0.000" class="guide background" id="img-0dd52395-6">
        <g transform="translate(60.96,30.96)" id="img-0dd52395-7">
          <path d="M-35.64,-25.96 L35.64,-25.96 35.64,25.96 -35.64,25.96  z" class="primitive"/>
        </g>
      </g>
      <g class="guide ygridlines xfixed" stroke-dasharray="0.5,0.5" stroke-width="0.2" stroke="#D0D0E0" id="img-0dd52395-8">
        <g transform="translate(60.96,54.91)" id="img-0dd52395-9">
          <path fill="none" d="M-35.64,0 L35.64,0 " class="primitive"/>
        </g>
        <g transform="translate(60.96,38.94)" id="img-0dd52395-10">
          <path fill="none" d="M-35.64,0 L35.64,0 " class="primitive"/>
        </g>
        <g transform="translate(60.96,22.97)" id="img-0dd52395-11">
          <path fill="none" d="M-35.64,0 L35.64,0 " class="primitive"/>
        </g>
        <g transform="translate(60.96,7)" id="img-0dd52395-12">
          <path fill="none" d="M-35.64,0 L35.64,0 " class="primitive"/>
        </g>
      </g>
      <g class="guide xgridlines yfixed" stroke-dasharray="0.5,0.5" stroke-width="0.2" stroke="#D0D0E0" id="img-0dd52395-13">
        <g transform="translate(27.32,30.96)" id="img-0dd52395-14">
          <path fill="none" d="M0,-25.96 L0,25.96 " class="primitive"/>
        </g>
        <g transform="translate(60.96,30.96)" id="img-0dd52395-15">
          <path fill="none" d="M0,-25.96 L0,25.96 " class="primitive"/>
        </g>
        <g transform="translate(94.6,30.96)" id="img-0dd52395-16">
          <path fill="none" d="M0,-25.96 L0,25.96 " class="primitive"/>
        </g>
      </g>
      <g class="plotpanel" id="img-0dd52395-17">
        <metadata>
          <boundingbox value="25.325000000000003mm 5.0mm 71.27499999999999mm 51.914999999999985mm"/>
          <unitbox value="-2972.87253808993 3.125221746843368e-5 105945.74507617987 -3.250443493686737e-5"/>
        </metadata>
        <g stroke-width="0.3" fill="#000000" fill-opacity="0.000" class="geometry" id="img-0dd52395-18">
          <g class="color_LCHab{Float32}(70.0f0,60.0f0,240.0f0)" stroke-dasharray="none" stroke="#00BFFF" id="img-0dd52395-19">
            <g transform="translate(60.96,39.01)" id="img-0dd52395-20">
              <path fill="none" d="M-33.64,15.91 L-33.37,14.88 -33.1,13.86 -32.83,12.83 -32.56,11.81 -32.29,10.79 -32.02,9.77 -31.75,8.76 -31.48,7.76 -31.21,6.75 -30.94,5.76 -30.67,4.77 -30.4,3.79 -30.13,2.82 -29.85,1.85 -29.58,0.9 -29.31,-0.04 -29.04,-0.98 -28.77,-1.9 -28.5,-2.81 -28.23,-3.71 -27.96,-4.59 -27.69,-5.47 -27.42,-6.32 -27.15,-7.17 -26.88,-7.99 -26.61,-8.81 -26.34,-9.6 -26.07,-10.38 -25.8,-11.14 -25.53,-11.89 -25.26,-12.61 -24.99,-13.32 -24.72,-14.01 -24.45,-14.68 -24.18,-15.33 -23.91,-15.96 -23.64,-16.57 -23.37,-17.16 -23.1,-17.73 -22.83,-18.28 -22.56,-18.81 -22.29,-19.31 -22.02,-19.8 -21.75,-20.26 -21.48,-20.7 -21.21,-21.11 -20.94,-21.51 -20.67,-21.88 -20.4,-22.23 -20.13,-22.56 -19.86,-22.87 -19.59,-23.15 -19.32,-23.41 -19.05,-23.65 -18.78,-23.86 -18.51,-24.06 -18.24,-24.23 -17.97,-24.37 -17.7,-24.5 -17.43,-24.6 -17.16,-24.69 -16.89,-24.74 -16.62,-24.78 -16.35,-24.8 -16.08,-24.8 -15.81,-24.77 -15.54,-24.72 -15.27,-24.66 -15,-24.57 -14.72,-24.46 -14.45,-24.34 -14.18,-24.19 -13.91,-24.03 -13.64,-23.85 -13.37,-23.65 -13.1,-23.43 -12.83,-23.19 -12.56,-22.94 -12.29,-22.67 -12.02,-22.39 -11.75,-22.09 -11.48,-21.77 -11.21,-21.44 -10.94,-21.1 -10.67,-20.74 -10.4,-20.37 -10.13,-19.98 -9.86,-19.59 -9.59,-19.18 -9.32,-18.76 -9.05,-18.33 -8.78,-17.89 -8.51,-17.44 -8.24,-16.98 -7.97,-16.51 -7.7,-16.03 -7.43,-15.55 -7.16,-15.06 -6.89,-14.56 -6.62,-14.05 -6.35,-13.54 -6.08,-13.03 -5.81,-12.51 -5.54,-11.99 -5.27,-11.46 -5,-10.93 -4.73,-10.4 -4.46,-9.86 -4.19,-9.33 -3.92,-8.79 -3.65,-8.25 -3.38,-7.71 -3.11,-7.18 -2.84,-6.64 -2.57,-6.1 -2.3,-5.57 -2.03,-5.04 -1.76,-4.51 -1.49,-3.98 -1.22,-3.46 -0.95,-2.94 -0.68,-2.42 -0.41,-1.91 -0.14,-1.4 0.14,-0.9 0.41,-0.4 0.68,0.09 0.95,0.58 1.22,1.06 1.49,1.53 1.76,1.99 2.03,2.45 2.3,2.91 2.57,3.35 2.84,3.79 3.11,4.22 3.38,4.64 3.65,5.05 3.92,5.46 4.19,5.86 4.46,6.24 4.73,6.62 5,7 5.27,7.36 5.54,7.71 5.81,8.06 6.08,8.39 6.35,8.72 6.62,9.04 6.89,9.35 7.16,9.65 7.43,9.94 7.7,10.22 7.97,10.5 8.24,10.76 8.51,11.02 8.78,11.27 9.05,11.51 9.32,11.74 9.59,11.96 9.86,12.17 10.13,12.38 10.4,12.58 10.67,12.77 10.94,12.95 11.21,13.12 11.48,13.29 11.75,13.45 12.02,13.6 12.29,13.75 12.56,13.89 12.83,14.02 13.1,14.15 13.37,14.27 13.64,14.38 13.91,14.49 14.18,14.59 14.45,14.69 14.72,14.78 15,14.86 15.27,14.94 15.54,15.02 15.81,15.09 16.08,15.16 16.35,15.22 16.62,15.28 16.89,15.33 17.16,15.38 17.43,15.43 17.7,15.47 17.97,15.52 18.24,15.55 18.51,15.59 18.78,15.62 19.05,15.65 19.32,15.68 19.59,15.7 19.86,15.72 20.13,15.74 20.4,15.76 20.67,15.78 20.94,15.79 21.21,15.81 21.48,15.82 21.75,15.83 22.02,15.84 22.29,15.85 22.56,15.86 22.83,15.87 23.1,15.87 23.37,15.88 23.64,15.88 23.91,15.89 24.18,15.89 24.45,15.89 24.72,15.89 24.99,15.9 25.26,15.9 25.53,15.9 25.8,15.9 26.07,15.9 26.34,15.9 26.61,15.9 26.88,15.91 27.15,15.91 27.42,15.91 27.69,15.91 27.96,15.91 28.23,15.91 28.5,15.91 28.77,15.91 29.04,15.91 29.31,15.91 29.58,15.91 29.85,15.91 30.13,15.91 30.4,15.91 30.67,15.91 30.94,15.91 31.21,15.91 31.48,15.91 31.75,15.91 32.02,15.91 32.29,15.91 32.56,15.91 32.83,15.91 33.1,15.91 33.37,15.91 33.64,15.91 " class="primitive"/>
            </g>
          </g>
        </g>
      </g>
    </g>
  </g>
  <g class="guide ylabels" font-size="2.82" font-family="'PT Sans Caption','Helvetica Neue','Helvetica',sans-serif" fill="#6C606B" id="img-0dd52395-21">
    <g transform="translate(24.33,54.91)" id="img-0dd52395-22">
      <g class="primitive">
        <text text-anchor="end" dy="0.35em">0.00000</text>
      </g>
    </g>
    <g transform="translate(24.33,38.94)" id="img-0dd52395-23">
      <g class="primitive">
        <text text-anchor="end" dy="0.35em">0.00001</text>
      </g>
    </g>
    <g transform="translate(24.33,22.97)" id="img-0dd52395-24">
      <g class="primitive">
        <text text-anchor="end" dy="0.35em">0.00002</text>
      </g>
    </g>
    <g transform="translate(24.33,7)" id="img-0dd52395-25">
      <g class="primitive">
        <text text-anchor="end" dy="0.35em">0.00003</text>
      </g>
    </g>
  </g>
  <g font-size="3.88" font-family="'PT Sans','Helvetica Neue','Helvetica',sans-serif" fill="#564A55" stroke="#000000" stroke-opacity="0.000" id="img-0dd52395-26">
    <g transform="translate(8.81,28.96)" id="img-0dd52395-27">
      <g class="primitive">
        <text text-anchor="middle" dy="0.35em" transform="rotate(-90,0, 2)">π_Y(y)</text>
      </g>
    </g>
  </g>
</g>
<defs>
  <clipPath id="img-0dd52395-4">
    <path d="M25.33,5 L96.6,5 96.6,56.91 25.33,56.91 " />
  </clipPath>
</defs>
</svg>
