<?xml version="1.0" encoding="UTF-8"?>
<svg xmlns="http://www.w3.org/2000/svg"
     xmlns:xlink="http://www.w3.org/1999/xlink"
     xmlns:gadfly="http://www.gadflyjl.org/ns"
     version="1.2"
     width="152.4mm" height="50.8mm" viewBox="0 0 152.4 50.8"
     stroke="none"
     fill="#000000"
     stroke-width="0.3"
     font-size="3.88"
>
<defs>
  <marker id="arrow" markerWidth="15" markerHeight="7" refX="5" refY="3.5" orient="auto" markerUnits="strokeWidth">
    <path d="M0,0 L15,3.5 L0,7 z" stroke="context-stroke" fill="context-stroke"/>
  </marker>
</defs>
<g class="plotroot xscalable yscalable" id="img-c32eb813-1">
  <g clip-path="url(#img-c32eb813-2)">
    <g id="img-c32eb813-3">
      <g pointer-events="visible" stroke-width="0.3" fill="#000000" fill-opacity="0.000" stroke="#000000" stroke-opacity="0.000" class="guide background" id="img-c32eb813-4">
        <g transform="translate(76.2,25.4)" id="img-c32eb813-5">
          <path d="M-71.2,-20.4 L71.2,-20.4 71.2,20.4 -71.2,20.4  z" class="primitive"/>
        </g>
      </g>
      <g class="plotpanel" id="img-c32eb813-6">
        <metadata>
          <boundingbox value="5.0mm 5.0mm 142.39999999999998mm 40.8mm"/>
          <unitbox value="101445.08670520231 2.6872379169190403e-5 -102890.17341040463 -2.825755335316929e-5"/>
        </metadata>
        <g stroke-width="2" fill="#000000" fill-opacity="0.000" class="geometry" id="img-c32eb813-7">
          <g class="color_LCHab{Float32}(70.0f0,60.0f0,240.0f0)" stroke-dasharray="none" stroke="#00BFFF" id="img-c32eb813-8">
            <g transform="translate(76.2,29.42)" id="img-c32eb813-9">
              <path fill="none" d="M69.2,14.38 L68.64,13.45 68.09,12.53 67.53,11.6 66.98,10.68 66.42,9.75 65.87,8.84 65.31,7.92 64.75,7.01 64.2,6.11 63.64,5.21 63.09,4.31 62.53,3.43 61.97,2.55 61.42,1.68 60.86,0.81 60.31,-0.04 59.75,-0.88 59.2,-1.72 58.64,-2.54 58.08,-3.35 57.53,-4.15 56.97,-4.94 56.42,-5.72 55.86,-6.48 55.3,-7.23 54.75,-7.96 54.19,-8.68 53.64,-9.38 53.08,-10.07 52.53,-10.74 51.97,-11.4 51.41,-12.04 50.86,-12.66 50.3,-13.27 49.75,-13.86 49.19,-14.43 48.63,-14.98 48.08,-15.51 47.52,-16.03 46.97,-16.52 46.41,-17 45.86,-17.46 45.3,-17.9 44.74,-18.31 44.19,-18.71 43.63,-19.09 43.08,-19.45 42.52,-19.78 41.96,-20.1 41.41,-20.4 40.85,-20.67 40.3,-20.93 39.74,-21.16 39.19,-21.38 38.63,-21.57 38.07,-21.75 37.52,-21.9 36.96,-22.03 36.41,-22.15 35.85,-22.24 35.29,-22.32 34.74,-22.37 34.18,-22.4 33.63,-22.42 33.07,-22.42 32.52,-22.39 31.96,-22.35 31.4,-22.29 30.85,-22.21 30.29,-22.12 29.74,-22 29.18,-21.87 28.62,-21.72 28.07,-21.56 27.51,-21.38 26.96,-21.18 26.4,-20.97 25.85,-20.74 25.29,-20.5 24.73,-20.24 24.18,-19.97 23.62,-19.68 23.07,-19.38 22.51,-19.07 21.96,-18.75 21.4,-18.41 20.84,-18.06 20.29,-17.71 19.73,-17.34 19.18,-16.96 18.62,-16.57 18.06,-16.17 17.51,-15.76 16.95,-15.35 16.4,-14.92 15.84,-14.49 15.29,-14.06 14.73,-13.61 14.17,-13.16 13.62,-12.7 13.06,-12.24 12.51,-11.78 11.95,-11.31 11.39,-10.84 10.84,-10.36 10.28,-9.88 9.73,-9.4 9.17,-8.92 8.62,-8.43 8.06,-7.95 7.5,-7.46 6.95,-6.97 6.39,-6.49 5.84,-6 5.28,-5.52 4.72,-5.03 4.17,-4.55 3.61,-4.07 3.06,-3.6 2.5,-3.12 1.95,-2.65 1.39,-2.19 0.83,-1.72 0.28,-1.27 -0.28,-0.81 -0.83,-0.36 -1.39,0.08 -1.95,0.52 -2.5,0.95 -3.06,1.38 -3.61,1.8 -4.17,2.22 -4.72,2.63 -5.28,3.03 -5.84,3.42 -6.39,3.81 -6.95,4.19 -7.5,4.57 -8.06,4.93 -8.62,5.29 -9.17,5.64 -9.73,5.99 -10.28,6.32 -10.84,6.65 -11.39,6.97 -11.95,7.28 -12.51,7.59 -13.06,7.88 -13.62,8.17 -14.17,8.45 -14.73,8.72 -15.29,8.99 -15.84,9.24 -16.4,9.49 -16.95,9.73 -17.51,9.96 -18.06,10.19 -18.62,10.4 -19.18,10.61 -19.73,10.81 -20.29,11 -20.84,11.19 -21.4,11.37 -21.96,11.54 -22.51,11.71 -23.07,11.86 -23.62,12.02 -24.18,12.16 -24.73,12.3 -25.29,12.43 -25.85,12.56 -26.4,12.68 -26.96,12.79 -27.51,12.9 -28.07,13 -28.62,13.1 -29.18,13.19 -29.74,13.28 -30.29,13.36 -30.85,13.44 -31.4,13.51 -31.96,13.58 -32.52,13.64 -33.07,13.7 -33.63,13.76 -34.18,13.81 -34.74,13.86 -35.29,13.91 -35.85,13.95 -36.41,13.99 -36.96,14.03 -37.52,14.06 -38.07,14.09 -38.63,14.12 -39.19,14.15 -39.74,14.17 -40.3,14.19 -40.85,14.21 -41.41,14.23 -41.96,14.25 -42.52,14.26 -43.08,14.28 -43.63,14.29 -44.19,14.3 -44.74,14.31 -45.3,14.32 -45.86,14.33 -46.41,14.34 -46.97,14.34 -47.52,14.35 -48.08,14.35 -48.63,14.36 -49.19,14.36 -49.75,14.36 -50.3,14.37 -50.86,14.37 -51.41,14.37 -51.97,14.37 -52.53,14.37 -53.08,14.38 -53.64,14.38 -54.19,14.38 -54.75,14.38 -55.3,14.38 -55.86,14.38 -56.42,14.38 -56.97,14.38 -57.53,14.38 -58.08,14.38 -58.64,14.38 -59.2,14.38 -59.75,14.38 -60.31,14.38 -60.86,14.38 -61.42,14.38 -61.97,14.38 -62.53,14.38 -63.09,14.38 -63.64,14.38 -64.2,14.38 -64.75,14.38 -65.31,14.38 -65.87,14.38 -66.42,14.38 -66.98,14.38 -67.53,14.38 -68.09,14.38 -68.64,14.38 -69.2,14.38 " class="primitive"/>
            </g>
          </g>
        </g>
      </g>
    </g>
  </g>
</g>
<defs>
  <clipPath id="img-c32eb813-2">
    <path d="M5,5 L147.4,5 147.4,45.8 5,45.8 " />
  </clipPath>
</defs>
</svg>
